<svg width="26" height="37" viewBox="0 0 26 37" fill="none" xmlns="http://www.w3.org/2000/svg">
<g clip-path="url(#clip0_1717_8790)">
<path d="M23 0.627441H3C1.34 0.627441 0 1.96744 0 3.62744V33.6274C0 35.2874 1.34 36.6274 3 36.6274H23C24.66 36.6274 26 35.2874 26 33.6274V3.62744C26 1.96744 24.66 0.627441 23 0.627441Z" fill="white"/>
<path d="M23 1.62744C24.1 1.62744 25 2.52744 25 3.62744V33.6274C25 34.7274 24.1 35.6274 23 35.6274H3C1.9 35.6274 1 34.7274 1 33.6274V3.62744C1 2.52744 1.9 1.62744 3 1.62744H23ZM23 0.627441H3C1.34 0.627441 0 1.96744 0 3.62744V33.6274C0 35.2874 1.34 36.6274 3 36.6274H23C24.66 36.6274 26 35.2874 26 33.6274V3.62744C26 1.96744 24.66 0.627441 23 0.627441Z" fill="#D0D0D0"/>
<rect width="24" height="9" transform="translate(1 23.6274)" fill="#83B143"/>
<path d="M8.213 28.6989L7.6635 27.1449C7.63083 27.0633 7.59583 26.9676 7.5585 26.8579C7.5235 26.7483 7.48967 26.6293 7.457 26.5009C7.42433 26.6316 7.38933 26.7529 7.352 26.8649C7.317 26.9746 7.28317 27.0703 7.2505 27.1519L6.7045 28.6989H8.213ZM9.977 30.6274H9.1615C9.0705 30.6274 8.99583 30.6064 8.9375 30.5644C8.8815 30.5201 8.8395 30.4641 8.8115 30.3964L8.4685 29.4269H6.4455L6.1025 30.3964C6.07917 30.4548 6.03833 30.5084 5.98 30.5574C5.92167 30.6041 5.84817 30.6274 5.7595 30.6274H4.937L6.9215 25.5489H7.996L9.977 30.6274ZM13.9015 29.7419C14.0065 29.7419 14.0882 29.7711 14.1465 29.8294C14.2072 29.8878 14.2375 29.9648 14.2375 30.0604V30.6274H10.7165V30.3124C10.7165 30.2518 10.7294 30.1864 10.755 30.1164C10.7807 30.0441 10.8239 29.9788 10.8845 29.9204L12.3895 28.4119C12.5179 28.2836 12.631 28.1611 12.729 28.0444C12.827 27.9254 12.9087 27.8099 12.974 27.6979C13.0394 27.5836 13.0884 27.4681 13.121 27.3514C13.1537 27.2348 13.17 27.1123 13.17 26.9839C13.17 26.7576 13.1117 26.5861 12.995 26.4694C12.8784 26.3504 12.7139 26.2909 12.5015 26.2909C12.4082 26.2909 12.3219 26.3049 12.2425 26.3329C12.1655 26.3586 12.0955 26.3948 12.0325 26.4414C11.9719 26.4881 11.9194 26.5429 11.875 26.6059C11.8307 26.6689 11.798 26.7378 11.777 26.8124C11.735 26.9291 11.6779 27.0073 11.6055 27.0469C11.5355 27.0843 11.4352 27.0924 11.3045 27.0714L10.7935 26.9804C10.8309 26.7331 10.9009 26.5161 11.0035 26.3294C11.1062 26.1428 11.2345 25.9876 11.3885 25.8639C11.5425 25.7403 11.7187 25.6481 11.917 25.5874C12.1154 25.5244 12.3289 25.4929 12.5575 25.4929C12.7979 25.4929 13.016 25.5291 13.212 25.6014C13.4104 25.6714 13.5795 25.7706 13.7195 25.8989C13.8595 26.0249 13.968 26.1778 14.045 26.3574C14.122 26.5371 14.1605 26.7354 14.1605 26.9524C14.1605 27.1391 14.1337 27.3118 14.08 27.4704C14.0264 27.6291 13.9529 27.7808 13.8595 27.9254C13.7685 28.0678 13.6624 28.2066 13.541 28.3419C13.4197 28.4773 13.2914 28.6138 13.156 28.7514L12.078 29.8539C12.197 29.8189 12.3149 29.7921 12.4315 29.7734C12.5482 29.7524 12.6579 29.7419 12.7605 29.7419H13.9015ZM18.3086 28.6989L17.7591 27.1449C17.7264 27.0633 17.6914 26.9676 17.6541 26.8579C17.6191 26.7483 17.5853 26.6293 17.5526 26.5009C17.5199 26.6316 17.4849 26.7529 17.4476 26.8649C17.4126 26.9746 17.3788 27.0703 17.3461 27.1519L16.8001 28.6989H18.3086ZM20.0726 30.6274H19.2571C19.1661 30.6274 19.0914 30.6064 19.0331 30.5644C18.9771 30.5201 18.9351 30.4641 18.9071 30.3964L18.5641 29.4269H16.5411L16.1981 30.3964C16.1748 30.4548 16.1339 30.5084 16.0756 30.5574C16.0173 30.6041 15.9438 30.6274 15.8551 30.6274H15.0326L17.0171 25.5489H18.0916L20.0726 30.6274Z" fill="white"/>
<path d="M15.7602 12.5361V13.0361H16.2602H19.2969C19.4016 13.0361 19.4607 13.0892 19.4859 13.1445C19.4992 13.1736 19.5022 13.2018 19.4985 13.2254C19.4955 13.2448 19.4865 13.2709 19.4591 13.3013L13.147 19.0713L13.1452 19.073C13.0666 19.1456 12.9334 19.1456 12.8548 19.073L12.853 19.0713L6.5386 13.2992C6.51272 13.2714 6.50435 13.2474 6.50143 13.2289C6.49785 13.2061 6.50065 13.1775 6.51446 13.147C6.54106 13.0884 6.60146 13.0361 6.70308 13.0361H9.73976H10.2398V12.5361V6.51831C10.2398 6.32525 10.4138 6.12744 10.6713 6.12744H15.3287C15.5862 6.12744 15.7602 6.32525 15.7602 6.51831V12.5361Z" fill="white" stroke="#D0D0D0"/>
</g>
<defs>
<clipPath id="clip0_1717_8790">
<rect width="26" height="36" fill="white" transform="translate(0 0.627441)"/>
</clipPath>
</defs>
</svg>
