<svg width="26" height="36" viewBox="0 0 26 36" fill="none" xmlns="http://www.w3.org/2000/svg">
<path d="M23 0H3C1.34 0 0 1.34 0 3V33C0 34.66 1.34 36 3 36H23C24.66 36 26 34.66 26 33V3C26 1.34 24.66 0 23 0Z" fill="white"/>
<path d="M23 1C24.1 1 25 1.9 25 3V33C25 34.1 24.1 35 23 35H3C1.9 35 1 34.1 1 33V3C1 1.9 1.9 1 3 1H23ZM23 0H3C1.34 0 0 1.34 0 3V33C0 34.66 1.34 36 3 36H23C24.66 36 26 34.66 26 33V3C26 1.34 24.66 0 23 0Z" fill="#D0D0D0"/>
<path d="M22.6562 27H12.3438C12.1513 27 12 26.78 12 26.5C12 26.22 12.1513 26 12.3438 26H22.6562C22.8488 26 23 26.22 23 26.5C23 26.78 22.8488 27 22.6562 27Z" fill="#D0D0D0"/>
<path d="M22.6562 18H12.3438C12.1513 18 12 17.78 12 17.5C12 17.22 12.1513 17 12.3438 17H22.6562C22.8488 17 23 17.22 23 17.5C23 17.78 22.8488 18 22.6562 18Z" fill="#D0D0D0"/>
<path d="M22.6562 9H12.3438C12.1513 9 12 8.78 12 8.5C12 8.22 12.1513 8 12.3438 8H22.6562C22.8488 8 23 8.22 23 8.5C23 8.78 22.8488 9 22.6562 9Z" fill="#D0D0D0"/>
<path d="M22.6562 30H12.3438C12.1513 30 12 29.78 12 29.5C12 29.22 12.1513 29 12.3438 29H22.6562C22.8488 29 23 29.22 23 29.5C23 29.78 22.8488 30 22.6562 30Z" fill="#D0D0D0"/>
<path d="M22.6562 21H12.3438C12.1513 21 12 20.78 12 20.5C12 20.22 12.1513 20 12.3438 20H22.6562C22.8488 20 23 20.22 23 20.5C23 20.78 22.8488 21 22.6562 21Z" fill="#D0D0D0"/>
<path d="M22.6562 12H12.3438C12.1513 12 12 11.78 12 11.5C12 11.22 12.1513 11 12.3438 11H22.6562C22.8488 11 23 11.22 23 11.5C23 11.78 22.8488 12 22.6562 12Z" fill="#D0D0D0"/>
<rect x="1" y="1" width="24" height="2" fill="#D0D0D0"/>
<rect x="3.5" y="25.5" width="6" height="5" rx="0.5" fill="#C41D39" stroke="#D0D0D0"/>
<rect x="3.5" y="16.5" width="6" height="5" rx="0.5" fill="#83B143" stroke="#D0D0D0"/>
<rect x="3.5" y="7.5" width="6" height="5" rx="0.5" fill="#2A9CFF" stroke="#D0D0D0"/>
</svg>
