<svg width="26" height="36" viewBox="0 0 26 36" fill="none" xmlns="http://www.w3.org/2000/svg">
<path d="M23 0H3C1.34 0 0 1.34 0 3V33C0 34.66 1.34 36 3 36H23C24.66 36 26 34.66 26 33V3C26 1.34 24.66 0 23 0Z" fill="white"/>
<path d="M23 1C24.1 1 25 1.9 25 3V33C25 34.1 24.1 35 23 35H3C1.9 35 1 34.1 1 33V3C1 1.9 1.9 1 3 1H23ZM23 0H3C1.34 0 0 1.34 0 3V33C0 34.66 1.34 36 3 36H23C24.66 36 26 34.66 26 33V3C26 1.34 24.66 0 23 0Z" fill="#D0D0D0"/>
<path d="M20.5 26H5.5C5.22 26 5 25.78 5 25.5C5 25.22 5.22 25 5.5 25H20.5C20.78 25 21 25.22 21 25.5C21 25.78 20.78 26 20.5 26Z" fill="#D0D0D0"/>
<path d="M20.5 29H5.5C5.22 29 5 28.78 5 28.5C5 28.22 5.22 28 5.5 28H20.5C20.78 28 21 28.22 21 28.5C21 28.78 20.78 29 20.5 29Z" fill="#D0D0D0"/>
<path d="M10.73 7.59C10.73 6.43 11.35 5.5 12.13 5.5C12.91 5.5 13.53 6.44 13.53 7.59C13.53 8.45 12.37 14.23 10.04 17.98C9.30998 19.16 7.54998 21.79 5.84998 20.54C3.75998 18.75 11.43 15.26 18.41 14.57C19.57 14.57 20.5 15.04 20.5 15.62C20.5 16.2 20.26 16.67 19.1 16.67C17.01 16.67 10.73 10.39 10.73 7.6V7.59Z" stroke="#E72041" stroke-miterlimit="10"/>
</svg>
