<svg width="26" height="36" viewBox="0 0 26 36" fill="none" xmlns="http://www.w3.org/2000/svg">
<path d="M23 0H3C1.34 0 0 1.34 0 3V33C0 34.66 1.34 36 3 36H23C24.66 36 26 34.66 26 33V3C26 1.34 24.66 0 23 0Z" fill="white"/>
<path d="M23 1C24.1 1 25 1.9 25 3V33C25 34.1 24.1 35 23 35H3C1.9 35 1 34.1 1 33V3C1 1.9 1.9 1 3 1H23ZM23 0H3C1.34 0 0 1.34 0 3V33C0 34.66 1.34 36 3 36H23C24.66 36 26 34.66 26 33V3C26 1.34 24.66 0 23 0Z" fill="#D0D0D0"/>
<path d="M20.5 30H5.5C5.22 30 5 29.78 5 29.5C5 29.22 5.22 29 5.5 29H20.5C20.78 29 21 29.22 21 29.5C21 29.78 20.78 30 20.5 30Z" fill="#D0D0D0"/>
<path d="M20.5 11H5.5C5.22 11 5 10.78 5 10.5C5 10.22 5.22 10 5.5 10H20.5C20.78 10 21 10.22 21 10.5C21 10.78 20.78 11 20.5 11Z" fill="#D0D0D0"/>
<path d="M20.5 27H5.5C5.22 27 5 26.78 5 26.5C5 26.22 5.22 26 5.5 26H20.5C20.78 26 21 26.22 21 26.5C21 26.78 20.78 27 20.5 27Z" fill="#D0D0D0"/>
<path d="M20.5 8H5.5C5.22 8 5 7.78 5 7.5C5 7.22 5.22 7 5.5 7H20.5C20.78 7 21 7.22 21 7.5C21 7.78 20.78 8 20.5 8Z" fill="#D0D0D0"/>
<path d="M6.87 18.44C6.79 18.48 6.70333 18.515 6.61 18.545C6.52 18.575 6.425 18.6033 6.325 18.63C6.525 18.6767 6.70667 18.74 6.87 18.82L8.505 19.675C8.59167 19.715 8.65167 19.765 8.685 19.825C8.72167 19.885 8.74 19.9517 8.74 20.025V20.995L4.735 18.9V18.355L8.74 16.265V17.235C8.74 17.305 8.72167 17.37 8.685 17.43C8.65167 17.49 8.59167 17.54 8.505 17.58L6.87 18.44ZM12.1858 21.98C12.1224 22.1467 12.0208 22.2717 11.8808 22.355C11.7441 22.4417 11.6041 22.485 11.4608 22.485H10.8758L13.7608 15.02C13.8174 14.87 13.9074 14.7533 14.0308 14.67C14.1541 14.5867 14.2958 14.545 14.4558 14.545H15.0458L12.1858 21.98ZM21.1826 18.355V18.9L17.1776 20.995V20.025C17.1776 19.9517 17.1942 19.885 17.2276 19.825C17.2642 19.765 17.3259 19.715 17.4126 19.675L19.0476 18.82C19.1309 18.78 19.2176 18.745 19.3076 18.715C19.3976 18.6817 19.4942 18.6533 19.5976 18.63C19.4942 18.6067 19.3976 18.58 19.3076 18.55C19.2176 18.5167 19.1309 18.48 19.0476 18.44L17.4126 17.58C17.3259 17.54 17.2642 17.49 17.2276 17.43C17.1942 17.37 17.1776 17.305 17.1776 17.235V16.265L21.1826 18.355Z" fill="#E72041"/>
</svg>
