<svg width="40" height="40" viewBox="0 0 40 40" fill="none" xmlns="http://www.w3.org/2000/svg">
<rect width="40" height="40" rx="20" fill="#83B143"/>
<g clip-path="url(#clip0_1724_9678)">
<path d="M27.707 26.3002L25.3758 23.969C26.3649 22.6767 26.9067 21.106 26.9067 19.4509C26.9067 17.4577 26.1313 15.5888 24.7247 14.1772C21.8169 11.2744 17.085 11.2744 14.1823 14.1822C11.2745 17.0899 11.2745 21.8168 14.1823 24.7246C15.5889 26.1312 17.4628 26.9066 19.456 26.9066C21.1111 26.9066 22.6818 26.3648 23.9741 25.3757L26.3053 27.7069C26.4991 27.9007 26.7526 28.0001 27.0061 28.0001C27.2596 28.0001 27.5131 27.9007 27.707 27.7069C28.0947 27.3192 28.0947 26.6879 27.707 26.3002ZM15.5839 23.3179C13.4516 21.1856 13.4516 17.7162 15.5839 15.5838C16.6526 14.5201 18.0493 13.9833 19.451 13.9833C20.8527 13.9833 22.2494 14.5152 23.318 15.5838C24.3867 16.6525 24.9185 17.9895 24.9185 19.4509C24.9185 20.9122 24.3519 22.2841 23.318 23.3179C22.2842 24.3518 20.9123 24.9184 19.451 24.9184C17.9897 24.9184 16.6178 24.3518 15.5839 23.3179Z" fill="white"/>
</g>
<defs>
<clipPath id="clip0_1724_9678">
<rect width="16" height="16" fill="white" transform="translate(12 12)"/>
</clipPath>
</defs>
</svg>
