<svg width="26" height="36" viewBox="0 0 26 36" fill="none" xmlns="http://www.w3.org/2000/svg">
<path d="M23 0H3C1.34 0 0 1.34 0 3V33C0 34.66 1.34 36 3 36H23C24.66 36 26 34.66 26 33V3C26 1.34 24.66 0 23 0Z" fill="white"/>
<path d="M23 1C24.1 1 25 1.9 25 3V33C25 34.1 24.1 35 23 35H3C1.9 35 1 34.1 1 33V3C1 1.9 1.9 1 3 1H23ZM23 0H3C1.34 0 0 1.34 0 3V33C0 34.66 1.34 36 3 36H23C24.66 36 26 34.66 26 33V3C26 1.34 24.66 0 23 0Z" fill="#D0D0D0"/>
<path d="M20.5 17H5.5C5.22 17 5 16.78 5 16.5C5 16.22 5.22 16 5.5 16H20.5C20.78 16 21 16.22 21 16.5C21 16.78 20.78 17 20.5 17Z" fill="#919497"/>
<path d="M20.5 21H5.5C5.22 21 5 20.78 5 20.5C5 20.22 5.22 20 5.5 20H20.5C20.78 20 21 20.22 21 20.5C21 20.78 20.78 21 20.5 21Z" fill="#919497"/>
<path d="M20.5 25H5.5C5.22 25 5 24.78 5 24.5C5 24.22 5.22 24 5.5 24H20.5C20.78 24 21 24.22 21 24.5C21 24.78 20.78 25 20.5 25Z" fill="#919497"/>
<path d="M20.5 29H5.5C5.22 29 5 28.78 5 28.5C5 28.22 5.22 28 5.5 28H20.5C20.78 28 21 28.22 21 28.5C21 28.78 20.78 29 20.5 29Z" fill="#919497"/>
<path d="M12.0001 11C11.6201 11 11.2701 10.79 11.1101 10.45L10.0001 8.24001L8.89006 10.45C8.55006 11.13 7.44006 11.13 7.10006 10.45L5.10006 6.45001C4.85006 5.96001 5.05006 5.36001 5.55006 5.11001C6.05006 4.86001 6.64006 5.06001 6.89006 5.56001L8.00006 7.77001L9.11006 5.56001C9.45006 4.88001 10.5601 4.88001 10.9001 5.56001L12.0101 7.77001L13.1201 5.56001C13.3701 5.07001 13.9701 4.87001 14.4601 5.11001C14.9501 5.36001 15.1501 5.96001 14.9101 6.45001L12.9101 10.45C12.7401 10.79 12.3901 11 12.0201 11H12.0001Z" fill="#2D9CDB"/>
</svg>
