<svg width="26" height="37" viewBox="0 0 26 37" fill="none" xmlns="http://www.w3.org/2000/svg">
<g clip-path="url(#clip0_1717_8799)">
<path d="M23 0.627441H3C1.34 0.627441 0 1.96744 0 3.62744V33.6274C0 35.2874 1.34 36.6274 3 36.6274H23C24.66 36.6274 26 35.2874 26 33.6274V3.62744C26 1.96744 24.66 0.627441 23 0.627441Z" fill="white"/>
<path d="M23 1.62744C24.1 1.62744 25 2.52744 25 3.62744V33.6274C25 34.7274 24.1 35.6274 23 35.6274H3C1.9 35.6274 1 34.7274 1 33.6274V3.62744C1 2.52744 1.9 1.62744 3 1.62744H23ZM23 0.627441H3C1.34 0.627441 0 1.96744 0 3.62744V33.6274C0 35.2874 1.34 36.6274 3 36.6274H23C24.66 36.6274 26 35.2874 26 33.6274V3.62744C26 1.96744 24.66 0.627441 23 0.627441Z" fill="#D0D0D0"/>
<rect width="24" height="9" transform="translate(1 23.6274)" fill="url(#paint0_linear_1717_8799)"/>
<path d="M9.2635 30.6274H8.2135C8.1435 30.6274 8.08633 30.6099 8.042 30.5749C8 30.5399 7.96617 30.4991 7.9405 30.4524L6.8415 28.5834C6.82983 28.6091 6.81817 28.6348 6.8065 28.6604C6.79717 28.6838 6.7855 28.7059 6.7715 28.7269L5.7285 30.4524C5.69817 30.4968 5.662 30.5376 5.62 30.5749C5.58033 30.6099 5.529 30.6274 5.466 30.6274H4.486L6.1485 28.0129L4.549 25.5489H5.599C5.669 25.5489 5.72033 25.5583 5.753 25.5769C5.78567 25.5956 5.81483 25.6259 5.8405 25.6679L6.9325 27.4634C6.94417 27.4354 6.957 27.4074 6.971 27.3794C6.985 27.3491 7.00133 27.3188 7.02 27.2884L8 25.6854C8.028 25.6388 8.05833 25.6049 8.091 25.5839C8.126 25.5606 8.168 25.5489 8.217 25.5489H9.2215L7.608 27.9674L9.2635 30.6274ZM15.9498 25.5489V30.6274H15.0223V27.5089C15.0223 27.4436 15.0235 27.3736 15.0258 27.2989C15.0305 27.2243 15.0375 27.1484 15.0468 27.0714L13.5943 29.8259C13.515 29.9776 13.3925 30.0534 13.2268 30.0534H13.0798C12.9981 30.0534 12.9258 30.0348 12.8628 29.9974C12.7998 29.9578 12.7496 29.9006 12.7123 29.8259L11.2528 27.0609C11.2598 27.1426 11.2656 27.2219 11.2703 27.2989C11.275 27.3736 11.2773 27.4436 11.2773 27.5089V30.6274H10.3498V25.5489H11.1478C11.1921 25.5489 11.2318 25.5501 11.2668 25.5524C11.3018 25.5548 11.3321 25.5618 11.3578 25.5734C11.3858 25.5828 11.4103 25.5991 11.4313 25.6224C11.4546 25.6434 11.4768 25.6738 11.4978 25.7134L12.9188 28.4224C12.9631 28.5041 13.004 28.5881 13.0413 28.6744C13.081 28.7608 13.1183 28.8494 13.1533 28.9404C13.1883 28.8471 13.2245 28.7561 13.2618 28.6674C13.3015 28.5788 13.3435 28.4936 13.3878 28.4119L14.7983 25.7134C14.8193 25.6738 14.8415 25.6434 14.8648 25.6224C14.8881 25.5991 14.9126 25.5828 14.9383 25.5734C14.9663 25.5618 14.9966 25.5548 15.0293 25.5524C15.0643 25.5501 15.1051 25.5489 15.1518 25.5489H15.9498ZM20.5815 29.7734V30.6274H17.568V25.5489H18.618V29.7734H20.5815Z" fill="white"/>
<g clip-path="url(#clip1_1717_8799)">
<path d="M6.50046 19.5875C6.37046 19.5875 6.24046 19.5375 6.15046 19.4375C6.03046 19.3175 5.98046 19.1575 6.01046 18.9975L6.65046 15.3875C6.72046 15.0175 6.89046 14.6775 7.16046 14.4075L15.1305 6.4275C16.2005 5.3575 18.0805 5.3575 19.1505 6.4275C20.2605 7.5375 20.2605 9.3375 19.1505 10.4475L11.1705 18.4275C10.9005 18.6975 10.5605 18.8675 10.1905 18.9375L6.58046 19.5775C6.58046 19.5775 6.52046 19.5775 6.49046 19.5775L6.50046 19.5875ZM17.1405 6.5975C16.6505 6.5975 16.1905 6.7875 15.8405 7.1375L7.86046 15.1175C7.74046 15.2375 7.66046 15.3975 7.63046 15.5675L7.12046 18.4675L10.0205 17.9575C10.1905 17.9275 10.3505 17.8475 10.4705 17.7275L18.4505 9.7475C19.1705 9.0275 19.1705 7.8575 18.4505 7.1475C18.1005 6.7975 17.6405 6.6075 17.1505 6.6075L17.1405 6.5975Z" fill="#D0D0D0"/>
<path d="M15.1231 7.14324L14.416 7.85034L17.7253 11.1596L18.4324 10.4525L15.1231 7.14324Z" fill="#D0D0D0"/>
<path d="M8.04011 14.237L7.33301 14.9441L10.6423 18.2534L11.3494 17.5462L8.04011 14.237Z" fill="#D0D0D0"/>
</g>
</g>
<defs>
<linearGradient id="paint0_linear_1717_8799" x1="0" y1="0" x2="24" y2="9" gradientUnits="userSpaceOnUse">
<stop stop-color="#47A4F5"/>
<stop offset="1" stop-color="#2F92E9"/>
</linearGradient>
<clipPath id="clip0_1717_8799">
<rect width="26" height="36" fill="white" transform="translate(0 0.627441)"/>
</clipPath>
<clipPath id="clip1_1717_8799">
<rect width="16" height="14" fill="white" transform="translate(5 5.62744)"/>
</clipPath>
</defs>
</svg>
