<svg width="26" height="36" viewBox="0 0 26 36" fill="none" xmlns="http://www.w3.org/2000/svg">
<path d="M23 0H3C1.34 0 0 1.34 0 3V33C0 34.66 1.34 36 3 36H23C24.66 36 26 34.66 26 33V3C26 1.34 24.66 0 23 0Z" fill="white"/>
<path d="M23 1C24.1 1 25 1.9 25 3V33C25 34.1 24.1 35 23 35H3C1.9 35 1 34.1 1 33V3C1 1.9 1.9 1 3 1H23ZM23 0H3C1.34 0 0 1.34 0 3V33C0 34.66 1.34 36 3 36H23C24.66 36 26 34.66 26 33V3C26 1.34 24.66 0 23 0Z" fill="#D0D0D0"/>
<path d="M20.5 7H5.5C5.22 7 5 6.78 5 6.5C5 6.22 5.22 6 5.5 6H20.5C20.78 6 21 6.22 21 6.5C21 6.78 20.78 7 20.5 7Z" fill="#D0D0D0"/>
<path d="M20.5 13H5.5C5.22 13 5 12.78 5 12.5C5 12.22 5.22 12 5.5 12H20.5C20.78 12 21 12.22 21 12.5C21 12.78 20.78 13 20.5 13Z" fill="#D0D0D0"/>
<path d="M20.5 10H5.5C5.22 10 5 9.78 5 9.5C5 9.22 5.22 9 5.5 9H20.5C20.78 9 21 9.22 21 9.5C21 9.78 20.78 10 20.5 10Z" fill="#D0D0D0"/>
<path d="M20.5 16H5.5C5.22 16 5 15.78 5 15.5C5 15.22 5.22 15 5.5 15H20.5C20.78 15 21 15.22 21 15.5C21 15.78 20.78 16 20.5 16Z" fill="#D0D0D0"/>
<path d="M20.5 19H5.5C5.22 19 5 18.78 5 18.5C5 18.22 5.22 18 5.5 18H20.5C20.78 18 21 18.22 21 18.5C21 18.78 20.78 19 20.5 19Z" fill="#D0D0D0"/>
<rect width="24" height="9" transform="translate(1 23)" fill="url(#paint0_linear_1694_8167)"/>
<path d="M9.2635 30H8.2135C8.1435 30 8.08633 29.9825 8.042 29.9475C8 29.9125 7.96617 29.8717 7.9405 29.825L6.8415 27.956C6.82983 27.9817 6.81817 28.0073 6.8065 28.033C6.79717 28.0563 6.7855 28.0785 6.7715 28.0995L5.7285 29.825C5.69817 29.8693 5.662 29.9102 5.62 29.9475C5.58033 29.9825 5.529 30 5.466 30H4.486L6.1485 27.3855L4.549 24.9215H5.599C5.669 24.9215 5.72033 24.9308 5.753 24.9495C5.78567 24.9682 5.81483 24.9985 5.8405 25.0405L6.9325 26.836C6.94417 26.808 6.957 26.78 6.971 26.752C6.985 26.7217 7.00133 26.6913 7.02 26.661L8 25.058C8.028 25.0113 8.05833 24.9775 8.091 24.9565C8.126 24.9332 8.168 24.9215 8.217 24.9215H9.2215L7.608 27.34L9.2635 30ZM15.9498 24.9215V30H15.0223V26.8815C15.0223 26.8162 15.0235 26.7462 15.0258 26.6715C15.0305 26.5968 15.0375 26.521 15.0468 26.444L13.5943 29.1985C13.515 29.3502 13.3925 29.426 13.2268 29.426H13.0798C12.9981 29.426 12.9258 29.4073 12.8628 29.37C12.7998 29.3303 12.7496 29.2732 12.7123 29.1985L11.2528 26.4335C11.2598 26.5152 11.2656 26.5945 11.2703 26.6715C11.275 26.7462 11.2773 26.8162 11.2773 26.8815V30H10.3498V24.9215H11.1478C11.1921 24.9215 11.2318 24.9227 11.2668 24.925C11.3018 24.9273 11.3321 24.9343 11.3578 24.946C11.3858 24.9553 11.4103 24.9717 11.4313 24.995C11.4546 25.016 11.4768 25.0463 11.4978 25.086L12.9188 27.795C12.9631 27.8767 13.004 27.9607 13.0413 28.047C13.081 28.1333 13.1183 28.222 13.1533 28.313C13.1883 28.2197 13.2245 28.1287 13.2618 28.04C13.3015 27.9513 13.3435 27.8662 13.3878 27.7845L14.7983 25.086C14.8193 25.0463 14.8415 25.016 14.8648 24.995C14.8881 24.9717 14.9126 24.9553 14.9383 24.946C14.9663 24.9343 14.9966 24.9273 15.0293 24.925C15.0643 24.9227 15.1051 24.9215 15.1518 24.9215H15.9498ZM20.5815 29.146V30H17.568V24.9215H18.618V29.146H20.5815Z" fill="white"/>
<defs>
<linearGradient id="paint0_linear_1694_8167" x1="0" y1="0" x2="24" y2="9" gradientUnits="userSpaceOnUse">
<stop stop-color="#47A4F5"/>
<stop offset="1" stop-color="#2F92E9"/>
</linearGradient>
</defs>
</svg>
