<svg width="40" height="40" viewBox="0 0 40 40" fill="none" xmlns="http://www.w3.org/2000/svg">
<rect width="40" height="40" rx="20" fill="#EAEDF3"/>
<rect x="6" y="6" width="28" height="28" rx="14" fill="#D7143A"/>
<path d="M20.9634 22.3625C20.887 22.4573 20.7906 22.5416 20.7366 22.6487C19.9511 24.1974 19.162 25.7436 18.3972 27.3027C18.1928 27.7194 17.9059 27.8943 17.4613 27.8733C17.1083 27.8567 16.754 27.8733 16.4004 27.869C15.7211 27.861 15.4324 27.3754 15.7605 26.766C16.569 25.2647 17.3891 23.7696 18.2043 22.2714C18.2765 22.1384 18.348 22.0042 18.4184 21.8731C18.3887 21.8356 18.3747 21.8048 18.3517 21.79C16.825 20.8347 16.1724 19.4005 16.1511 17.6296C16.136 16.3463 16.3513 15.1158 17.081 14.0312C17.8889 12.8297 19.0316 12.2136 20.4509 12.1465C21.2273 12.1095 22.0067 12.1299 22.7849 12.1372C23.2501 12.1416 23.4982 12.397 23.4982 12.8654C23.5006 17.634 23.5006 22.4031 23.4982 27.1716C23.4982 27.6345 23.2665 27.861 22.8013 27.8684C22.458 27.8739 22.1141 27.8739 21.7707 27.8684C21.3183 27.8616 21.0811 27.6222 21.0805 27.1612C21.0775 25.7048 21.0793 24.2485 21.0793 22.7921C21.0793 22.6709 21.0793 22.5496 21.0793 22.4283L20.9634 22.3625ZM21.0787 17.2856C21.0787 16.3949 21.0738 15.5042 21.0823 14.6135C21.0841 14.4159 21.0235 14.3482 20.8251 14.3415C19.9742 14.3138 19.3488 14.6708 19.0268 15.4722C18.5755 16.5937 18.5458 17.7491 18.9509 18.8896C19.2506 19.7348 19.8941 20.1601 20.7524 20.1859C20.9938 20.1933 21.0896 20.1324 21.0847 19.8653C21.069 19.0054 21.0787 18.1455 21.0787 17.2856Z" fill="white"/>
</svg>
