<svg width="28" height="32" viewBox="0 0 28 32" fill="none" xmlns="http://www.w3.org/2000/svg">
<g clip-path="url(#clip0_2101_4208)">
<g clip-path="url(#clip1_2101_4208)">
<path d="M11.0207 29.045C10.8507 29.045 10.6807 29.015 10.5107 28.955C9.95068 28.765 9.55068 28.275 9.48068 27.675C9.16068 24.965 8.01068 22.275 6.56068 20.825L3.60068 17.865C0.530681 14.795 -1.49932 9.66502 2.86068 5.30502C7.22068 0.945017 12.3607 2.97502 15.4207 6.04502L18.3807 9.00502C19.8307 10.455 22.5207 11.595 25.2307 11.925C25.8207 11.995 26.3107 12.385 26.5107 12.955C26.7007 13.515 26.5607 14.135 26.1407 14.555L12.1007 28.595C11.8007 28.895 11.4107 29.045 11.0107 29.045H11.0207ZM8.44068 3.78502C6.90068 3.78502 5.22068 4.36502 3.57068 6.01502C-1.37932 10.965 3.32068 16.175 4.31068 17.165L7.27068 20.125C8.89068 21.745 10.1207 24.595 10.4707 27.565C10.5007 27.775 10.6307 27.945 10.8307 28.015C11.0307 28.085 11.2407 28.035 11.3907 27.885L25.4307 13.845C25.5807 13.695 25.6307 13.485 25.5607 13.285C25.4907 13.085 25.3207 12.945 25.1107 12.925C22.1407 12.565 19.2907 11.345 17.6707 9.72502L14.7107 6.76502C14.0507 6.10502 11.5207 3.79502 8.43068 3.79502L8.44068 3.78502Z" fill="#696B6F"/>
<path d="M7.10094 29.555C6.87094 29.555 6.67094 29.405 6.61094 29.175C5.87094 26.155 4.47094 23.385 2.86094 21.775C2.66094 21.575 2.66094 21.265 2.86094 21.065C3.06094 20.865 3.37094 20.865 3.57094 21.065C5.33094 22.825 6.80094 25.695 7.59094 28.935C7.66094 29.205 7.49094 29.475 7.22094 29.535C7.18094 29.535 7.14094 29.545 7.10094 29.545V29.555Z" fill="#696B6F"/>
<path d="M27.0807 10.155C27.0807 10.155 27.0107 10.155 26.9707 10.145C23.5807 9.39503 20.4607 7.85503 18.6207 6.01503C18.4207 5.81503 18.4207 5.50503 18.6207 5.30503C18.8207 5.10503 19.1307 5.10503 19.3307 5.30503C21.0407 7.01503 23.9807 8.45503 27.1907 9.16503C27.4607 9.22503 27.6307 9.49503 27.5707 9.76503C27.5207 9.99503 27.3107 10.155 27.0807 10.155Z" fill="#696B6F"/>
<path d="M19.1507 24.755C18.3807 24.755 17.6107 24.465 17.0307 23.875L16.2207 23.065L20.6307 18.655L21.4407 19.465C22.0107 20.035 22.3207 20.785 22.3207 21.585C22.3207 22.385 22.0107 23.135 21.4407 23.705L21.2707 23.875C20.6907 24.455 19.9207 24.755 19.1507 24.755ZM17.6307 23.065L17.7307 23.165C18.5107 23.945 19.7807 23.945 20.5607 23.165L20.7307 22.995C21.1107 22.615 21.3207 22.115 21.3207 21.585C21.3207 21.055 21.1107 20.545 20.7307 20.175L20.6307 20.075L17.6307 23.075V23.065Z" fill="#696B6F"/>
<path d="M2.1 7.47495L0.59 5.96495C0.21 5.58495 0 5.08495 0 4.55495C0 4.02495 0.21 3.51495 0.59 3.13495L0.69 3.03495C1.47 2.25495 2.74 2.25495 3.52 3.03495L5.04 4.55495L2.11 7.48495L2.1 7.47495ZM2.1 3.44495C1.84 3.44495 1.59 3.54495 1.39 3.73495L1.29 3.83495C1.1 4.02495 1 4.27495 1 4.54495C1 4.81495 1.1 5.06495 1.29 5.25495L2.1 6.06495L3.62 4.54495L2.81 3.73495C2.61 3.54495 2.36 3.44495 2.1 3.44495Z" fill="#696B6F"/>
</g>
</g>
<defs>
<clipPath id="clip0_2101_4208">
<rect width="27.58" height="32" fill="white"/>
</clipPath>
<clipPath id="clip1_2101_4208">
<rect width="27.58" height="27.11" fill="white" transform="translate(0 2.44507)"/>
</clipPath>
</defs>
</svg>
