<svg xmlns="http://www.w3.org/2000/svg" width="60" height="60" viewBox="0 0 60 60"><title>icon-13</title><path d="M51.34 9.61A29.5 29.5 0 1 0 60 30.49a29.41 29.41 0 0 0-8.66-20.88zm-1.42 40.3a27.49 27.49 0 1 1 8-19.42 27.35 27.35 0 0 1-8 19.42z" fill="#aa353d"/><path d="M30 15.45l15 8.66h-2.12v2h-1.23v2.22h-.89v7.55h.89v2.22h.89v2.22h1.33v2.23H16.33v-2.23h1.33V38.1H19v-2.22h.89v-7.55H19v-2.22h-1.88v-2H15zm6.76 22.65v-2.22h.89v-7.55h-.89v-2.22h-4v2.22h-.88v7.55h.88v2.22zm-8.88 0v-2.22h.89v-7.55h-.89v-2.22h-4v2.22H23v7.55h.89v2.22z" fill="#aa353d"/></svg>