<svg width="32" height="32" viewBox="0 0 32 32" fill="none" xmlns="http://www.w3.org/2000/svg">
<path d="M30.5 20H16.5C16.22 20 16 19.78 16 19.5C16 19.22 16.22 19 16.5 19H30.5C30.78 19 31 18.78 31 18.5V14.5C31 14.22 30.78 14 30.5 14H16C15.72 14 15.5 13.78 15.5 13.5C15.5 13.22 15.72 13 16 13H30.5C31.33 13 32 13.67 32 14.5V18.5C32 19.33 31.33 20 30.5 20Z" fill="#696B6F"/>
<path d="M30.5 11H10.5C9.67 11 9 10.33 9 9.5V5.5C9 4.67 9.67 4 10.5 4H30.5C31.33 4 32 4.67 32 5.5V9.5C32 10.33 31.33 11 30.5 11ZM10.5 5C10.22 5 10 5.22 10 5.5V9.5C10 9.78 10.22 10 10.5 10H30.5C30.78 10 31 9.78 31 9.5V5.5C31 5.22 30.78 5 30.5 5H10.5Z" fill="#696B6F"/>
<path d="M30 10H29V13H30V10Z" fill="#696B6F"/>
<path d="M30 19H29V22H30V19Z" fill="#696B6F"/>
<path d="M30.5 29H10.5C9.67 29 9 28.33 9 27.5V26.5C9 26.22 9.22 26 9.5 26C9.78 26 10 26.22 10 26.5V27.5C10 27.78 10.22 28 10.5 28H30.5C30.78 28 31 27.78 31 27.5V23.5C31 23.22 30.78 23 30.5 23H16.96C16.68 23 16.46 22.78 16.46 22.5C16.46 22.22 16.68 22 16.96 22H30.5C31.33 22 32 22.67 32 23.5V27.5C32 28.33 31.33 29 30.5 29Z" fill="#696B6F"/>
<path d="M31.5 8H20.5C20.22 8 20 7.78 20 7.5C20 7.22 20.22 7 20.5 7H31.5C31.78 7 32 7.22 32 7.5C32 7.78 31.78 8 31.5 8Z" fill="#696B6F"/>
<path d="M31.5 17H20.5C20.22 17 20 16.78 20 16.5C20 16.22 20.22 16 20.5 16H31.5C31.78 16 32 16.22 32 16.5C32 16.78 31.78 17 31.5 17Z" fill="#696B6F"/>
<path d="M31.5 26H20.5C20.22 26 20 25.78 20 25.5C20 25.22 20.22 25 20.5 25H31.5C31.78 25 32 25.22 32 25.5C32 25.78 31.78 26 31.5 26Z" fill="#696B6F"/>
<path d="M13.3301 7.5H12.3301C12.0501 7.5 11.8301 7.28 11.8301 7C11.8301 6.72 12.0501 6.5 12.3301 6.5H13.3301C13.6101 6.5 13.8301 6.72 13.8301 7C13.8301 7.28 13.6101 7.5 13.3301 7.5Z" fill="#696B6F"/>
<path d="M13.5 26H12.5C12.22 26 12 25.78 12 25.5C12 25.22 12.22 25 12.5 25H13.5C13.78 25 14 25.22 14 25.5C14 25.78 13.78 26 13.5 26Z" fill="#696B6F"/>
<path d="M16.5 8H15.5C15.22 8 15 7.78 15 7.5C15 7.22 15.22 7 15.5 7H16.5C16.78 7 17 7.22 17 7.5C17 7.78 16.78 8 16.5 8Z" fill="#696B6F"/>
<path d="M16.5 26H15.5C15.22 26 15 25.78 15 25.5C15 25.22 15.22 25 15.5 25H16.5C16.78 25 17 25.22 17 25.5C17 25.78 16.78 26 16.5 26Z" fill="#696B6F"/>
<path d="M2.21 27.3837C2.08 27.3837 1.95 27.3337 1.86 27.2337L0.15 25.5237C-0.05 25.3237 -0.05 25.0137 0.15 24.8137L2.36 22.6037L1.01 21.2537C0.89 21.1337 0.84 20.9637 0.87 20.8037C0.9 20.6437 1.02 20.5037 1.17 20.4437L9.71 17.0337C9.89 16.9637 10.11 17.0037 10.25 17.1437C10.39 17.2837 10.43 17.4937 10.36 17.6837L6.95 26.2237C6.89 26.3837 6.75 26.4937 6.59 26.5237C6.43 26.5537 6.26 26.5037 6.14 26.3837L4.79 25.0337L2.58 27.2437C2.48 27.3437 2.35 27.3937 2.23 27.3937L2.21 27.3837ZM1.21 25.1737L2.21 26.1737L4.42 23.9637C4.62 23.7637 4.93 23.7637 5.13 23.9637L6.3 25.1337L9 18.3837L2.25 21.0837L3.42 22.2537C3.62 22.4537 3.62 22.7637 3.42 22.9637L1.21 25.1737Z" fill="#696B6F"/>
<path d="M10.0293 15C9.7493 15 9.5293 14.78 9.5293 14.5V12.5C9.5293 12.22 9.7493 12 10.0293 12C10.3093 12 10.5293 12.22 10.5293 12.5V14.5C10.5293 14.78 10.3093 15 10.0293 15Z" fill="#696B6F"/>
<path d="M15.0293 18H13.0293C12.7493 18 12.5293 17.78 12.5293 17.5C12.5293 17.22 12.7493 17 13.0293 17H15.0293C15.3093 17 15.5293 17.22 15.5293 17.5C15.5293 17.78 15.3093 18 15.0293 18Z" fill="#696B6F"/>
<path d="M12.1484 15.88C12.0184 15.88 11.8884 15.83 11.7984 15.73C11.5984 15.53 11.5984 15.22 11.7984 15.02L13.2084 13.61C13.4084 13.41 13.7184 13.41 13.9184 13.61C14.1184 13.81 14.1184 14.12 13.9184 14.32L12.5084 15.73C12.4084 15.83 12.2784 15.88 12.1584 15.88H12.1484Z" fill="#696B6F"/>
<path d="M7.91 15.88C7.78 15.88 7.65 15.83 7.56 15.73L6.15 14.32C5.95 14.12 5.95 13.81 6.15 13.61C6.35 13.41 6.66 13.41 6.86 13.61L8.27 15.02C8.47 15.22 8.47 15.53 8.27 15.73C8.17 15.83 8.04 15.88 7.92 15.88H7.91Z" fill="#696B6F"/>
<path d="M13.5584 21.5401C13.4284 21.5401 13.2984 21.4901 13.2084 21.3901L11.7984 19.9801C11.5984 19.7801 11.5984 19.4701 11.7984 19.2701C11.9984 19.0701 12.3084 19.0701 12.5084 19.2701L13.9184 20.6801C14.1184 20.8801 14.1184 21.1901 13.9184 21.3901C13.8184 21.4901 13.6884 21.5401 13.5684 21.5401H13.5584Z" fill="#696B6F"/>
<path d="M11.5 31C11.22 31 11 30.78 11 30.5V28.5C11 28.22 11.22 28 11.5 28C11.78 28 12 28.22 12 28.5V30.5C12 30.78 11.78 31 11.5 31Z" fill="#696B6F"/>
<path d="M29.5 31C29.22 31 29 30.78 29 30.5V28.5C29 28.22 29.22 28 29.5 28C29.78 28 30 28.22 30 28.5V30.5C30 30.78 29.78 31 29.5 31Z" fill="#696B6F"/>
</svg>
