<svg xmlns="http://www.w3.org/2000/svg" width="60" height="60" viewBox="0 0 60 60"><title>icon-15</title><path d="M51.34 9.61A29.5 29.5 0 1 0 60 30.49a29.41 29.41 0 0 0-8.66-20.88zm-1.42 40.3a27.49 27.49 0 1 1 8-19.42 27.35 27.35 0 0 1-8 19.42z" fill="#aa353d"/><path d="M38 43.5v-12h5v1c0 6.43-.57 8.81-5 11z" fill="#aa353d"/><path d="M41 28.5V13H27.5v12H14v19.5h19.6a18.63 18.63 0 0 0 4.15 2.5c7.3-3.38 8.17-7 8.24-17v-1.5zm-16.5 9H17v-2h7.5zm0-4H17v-2h7.5zm0-4H17v-2h7.5zm6-14H38v2h-7.5zm0 4H38v2h-7.5zM43.35 40c-.86 2.17-2.39 3.73-5.6 5.31-3.21-1.55-4.75-3.11-5.6-5.31S31 34.74 31 30h13.49c-.03 4.74-.25 7.78-1.14 10z" fill="#aa353d"/></svg>