<svg width="45" height="44" viewBox="0 0 45 44" fill="none" xmlns="http://www.w3.org/2000/svg">
<path d="M22.3577 41.2342C11.3169 41.2342 2.30018 32.5342 2.30018 21.7499C2.30018 10.9656 11.3169 2.26562 22.3577 2.26562C33.3986 2.26562 42.4152 10.9656 42.4152 21.7499C42.4152 32.5342 33.4906 41.2342 22.3577 41.2342ZM22.3577 0C10.0288 0 0 9.69683 0 21.7499C0 33.803 10.0288 43.4998 22.3577 43.4998C34.6867 43.4998 44.7154 33.803 44.7154 21.7499C44.8074 9.69683 34.7787 0 22.3577 0ZM27.3261 29.3624C29.1662 31.2655 28.8902 34.8905 28.3382 36.6123C28.3382 36.703 28.2462 36.8842 28.0621 36.9748C27.0501 37.3373 25.762 37.6092 25.1179 37.6998C27.8781 35.1623 28.3382 31.5374 27.3261 29.3624ZM37.8149 27.1874C35.3307 25.103 32.2945 23.653 29.5343 23.1999C32.4785 24.4686 35.2387 27.3686 36.7108 30.178C36.9868 29.7249 37.6309 28.728 37.9989 27.6405C37.9989 27.3686 37.9069 27.1874 37.8149 27.1874ZM39.011 21.7499C39.011 21.5687 38.919 21.5687 38.919 21.478C37.1708 20.753 36.0668 20.5718 36.0668 20.5718C36.5268 20.3905 36.8948 19.8468 36.8948 19.5749C35.7907 20.1187 34.5026 20.2999 33.6746 20.2093C35.2387 20.8437 37.4469 21.9312 38.919 23.1093C39.011 22.6562 39.011 22.1124 39.011 21.7499ZM29.9943 27.5499C30.6383 27.7311 31.4664 27.8218 32.0185 27.5499C29.2582 26.8249 27.6941 23.1093 21.5296 22.5655C21.2536 22.5655 20.6096 22.6562 20.9776 22.0218C21.3456 21.478 23.8298 19.8468 23.8298 19.8468C23.3698 19.8468 21.2536 20.028 20.6096 20.1187C19.9655 20.2093 19.8735 20.028 19.7815 19.5749C19.7815 19.5749 18.4934 20.753 19.1375 21.2968C19.2295 21.3874 19.5055 21.3874 19.7815 21.2968L20.8856 20.9343C20.8856 20.9343 20.9776 20.9343 20.9776 21.0249C20.7936 21.2062 20.5176 21.8405 20.4256 22.1124C20.3336 22.4749 20.2416 22.6562 20.8856 22.8374C21.4376 23.0187 24.2899 23.9249 26.038 25.0124C27.7861 26.1905 31.9264 29.2718 31.7424 35.1624C32.7545 34.528 33.5826 33.803 34.1346 33.2592C34.2266 33.1686 34.2266 32.9874 34.2266 32.8967C33.4906 31.1749 31.8344 28.728 29.9943 27.5499ZM36.4348 15.3156C36.1588 16.2218 35.6067 16.6749 35.2387 16.7656C34.6867 16.9468 34.1346 16.7656 34.1346 16.7656L33.6746 17.2187C33.4906 17.3999 33.3065 17.3093 33.3986 17.1281C33.3986 17.0374 33.3986 16.8562 33.3065 16.6749C33.1225 16.4031 32.9385 16.6749 32.7545 16.7656C32.4785 16.8562 32.4785 16.4937 32.4785 16.4937C31.0984 16.2218 30.4543 16.8562 30.4543 16.8562C31.4664 16.9468 31.9264 17.5812 32.0185 17.8531C32.1105 18.1249 32.6625 18.1249 32.9385 17.9437C33.0305 17.8531 33.2145 17.7624 33.2145 18.0343C33.2145 18.1249 33.2145 18.2155 33.1225 18.3968C33.5826 18.6687 33.6746 18.6687 33.5826 18.9405C33.0305 19.8468 32.5705 19.6655 32.4785 19.6655C30.5463 18.9405 28.7062 18.6687 27.6021 18.6687L28.2462 18.0343C20.4256 18.0343 19.0455 18.9405 18.6774 19.4843C18.4014 19.8468 18.6774 20.3905 18.6774 20.3905C17.7574 20.5718 15.3652 20.9343 14.3531 21.9312C13.433 22.7468 13.341 24.5593 13.249 25.2843C13.709 24.8311 14.2611 24.5593 14.7211 24.2874C15.8252 23.8343 17.0213 23.9249 18.5854 23.9249C19.2295 23.9249 19.5975 24.1968 19.7815 24.5593C19.9655 24.9218 19.5055 24.9218 19.2295 24.7405C17.8494 23.9249 17.3893 25.4655 15.9172 25.0124C16.3773 25.5561 17.0213 25.5561 17.3893 25.4655C18.8614 24.9218 19.2295 25.4655 19.2295 25.6468C18.3094 25.5561 16.8373 26.1905 16.1012 26.2811C15.1812 26.4624 14.3531 26.4624 14.3531 26.4624C14.9051 27.1874 15.8252 27.1874 16.3773 27.1874C17.0213 27.1874 19.0455 27.0061 20.2415 27.1874C23.3698 27.4593 23.5538 30.2686 21.7137 31.9905C23.1858 31.628 23.7378 30.2686 23.7378 30.2686C24.8419 34.9811 20.4256 37.428 16.7453 36.703C14.9971 36.3405 13.617 35.6155 12.605 34.8905C11.8689 34.3467 11.2249 33.803 11.0408 33.6217C13.433 34.2561 17.0213 34.2561 19.5055 33.1686C14.8131 33.2592 11.5929 32.0811 9.38472 30.903C8.46465 30.4499 8.28063 30.2686 7.91261 29.7249C7.17655 28.5468 6.71651 27.4593 6.34849 25.828C8.18863 27.3686 12.0529 29.453 13.9851 29.6343C9.1087 26.8249 6.62451 22.8374 6.44049 22.3843C6.25648 22.0218 5.88845 21.6593 5.88845 20.753C5.98046 19.5749 6.34849 17.8531 6.80852 16.6749C7.36056 18.3062 8.83268 21.2062 10.5808 22.6562C8.83268 19.1218 8.55665 14.4999 8.64866 13.6843C8.64866 13.3218 8.74067 13.0499 9.01669 12.5968C9.47673 11.9624 10.4888 10.875 11.5009 9.96871C11.3169 11.2375 10.9488 13.8656 11.4089 16.3124C12.0529 12.4156 13.617 9.42496 14.6291 8.06559C14.8131 7.79372 14.9971 7.61247 15.3652 7.43122C15.8252 7.15935 17.2053 6.6156 18.7694 6.2531C17.3893 7.15935 16.2852 8.97184 15.9172 9.87808C20.5176 5.5281 24.9339 5.61873 27.5101 4.44061C28.0621 4.25936 28.3382 4.62186 28.2462 4.98435C28.1542 5.34685 28.0621 6.07185 28.0621 6.07185C29.6263 6.43435 30.3623 7.15935 30.3623 7.15935C30.2703 6.9781 30.3623 6.6156 30.3623 6.6156C32.5705 8.51871 33.2145 9.96871 33.2145 11.0562C33.1225 12.1437 33.9506 12.6874 34.4106 12.9593C34.8707 13.2312 36.6188 14.2281 36.9868 14.4999C37.0788 14.5906 36.7108 15.1343 36.4348 15.3156ZM26.59 5.61873C25.946 5.98122 25.3019 6.6156 24.8419 7.52184C24.7499 7.70309 24.9339 7.88434 25.1179 7.70309C25.67 7.43122 26.314 7.24997 26.314 7.24997C26.13 6.79685 26.774 5.98122 27.0501 5.61873C27.1421 5.5281 27.0501 5.34685 26.59 5.61873ZM32.0185 10.15C31.8344 11.3281 31.6504 11.2375 31.3744 11.1468C30.9144 10.9656 29.9943 10.875 29.6263 10.9656C30.5463 11.7812 31.1904 12.9593 31.1904 12.9593C31.2824 12.5968 31.0984 11.9624 30.9144 11.6906C30.8224 11.5093 30.9144 11.5093 31.0984 11.6C31.1904 11.6 31.4664 11.6906 31.6504 11.7812C32.0185 11.8718 32.0185 11.7812 32.1105 11.5093C32.1105 11.3281 32.2025 10.875 32.0185 10.15ZM20.6096 15.4062C20.7936 15.3156 21.4376 15.0437 21.8057 14.9531C21.8057 14.9531 21.4376 16.1312 21.5296 17.9437C22.1737 17.8531 22.9098 17.7624 23.6458 17.7624C22.4497 17.3093 22.5417 15.1343 23.3698 14.0468C23.6458 13.6843 23.3698 13.6843 23.0018 13.7749C22.6337 13.8656 22.3577 13.9562 21.9897 14.1374C21.9897 14.1374 22.1737 11.2375 24.7499 8.97184C22.3577 9.87808 20.5176 13.3218 20.6096 15.4062Z" fill="#C41D39"/>
</svg>
