<svg xmlns="http://www.w3.org/2000/svg" width="60" height="60" viewBox="0 0 60 60"><title>icon-16</title><path d="M51.34 9.61A29.5 29.5 0 1 0 60 30.49a29.41 29.41 0 0 0-8.66-20.88zm-1.42 40.3a27.49 27.49 0 1 1 8-19.42 27.35 27.35 0 0 1-8 19.42z" fill="#aa353d"/><path d="M47 27.26L30.48 14.74 14 27.26l1.61 1.6L30.48 18l14.89 10.86z" fill="#aa353d"/><path d="M30.48 20.24l11.38 8v17.03H23.49l3.84-3.84a6.81 6.81 0 0 0 9.08-9.08l-3.74 3.73a2.27 2.27 0 0 1-3.21-3.21l3.74-3.73a6.81 6.81 0 0 0-9.08 9.08l-5 5v-15z" fill="#aa353d"/></svg>