<svg width="33" height="32" viewBox="0 0 33 32" fill="none" xmlns="http://www.w3.org/2000/svg">
<g clip-path="url(#clip0_2101_4248)">
<g clip-path="url(#clip1_2101_4248)">
<path d="M10.9805 1.97998C6.01047 1.97998 1.98047 6.00998 1.98047 10.98C1.98047 15.95 6.01047 19.98 10.9805 19.98C15.9505 19.98 19.9805 15.95 19.9805 10.98C19.9805 6.00998 15.9505 1.97998 10.9805 1.97998ZM10.9805 2.97998C13.9605 2.97998 16.5605 4.61998 17.9405 7.03998C16.1205 6.88998 14.9605 6.20998 14.1005 5.70998C13.5005 5.35998 13.0205 5.07998 12.5105 5.07998C12.3805 5.07998 12.2505 5.12998 12.1605 5.22998C10.3705 7.01998 6.12047 7.77998 3.58047 7.98998C4.75047 5.04998 7.62047 2.97998 10.9805 2.97998ZM10.9805 18.98C6.57047 18.98 2.98047 15.39 2.98047 10.98C2.98047 10.3 3.07047 9.63998 3.24047 9.00998C4.71047 8.90998 10.1605 8.37998 12.6805 6.10998C12.9205 6.17998 13.2405 6.36998 13.5905 6.57998C14.5705 7.15998 16.0505 8.00998 18.4305 8.06998C18.7905 8.96998 18.9905 9.95998 18.9905 10.98C18.9905 15.39 15.4005 18.98 10.9905 18.98H10.9805Z" fill="#696B6F"/>
<path d="M16.3698 19.1801L13.4898 23.0101L13.0198 21.3401C12.9598 21.1301 12.7598 20.9801 12.5398 20.9801H9.51977C9.29977 20.9801 9.09977 21.1301 9.03977 21.3401L8.54977 23.0601L5.62977 19.1701C5.49977 18.9901 5.25977 18.9201 5.04977 19.0001C4.52977 19.2001 0.00976562 21.1501 0.00976562 26.8301V29.4701C0.00976562 29.7501 0.229766 29.9701 0.509766 29.9701C0.789766 29.9701 1.00977 29.7501 1.00977 29.4701V26.8301C1.00977 22.4701 3.99977 20.6101 5.07977 20.0801L10.5098 27.3101V29.4601C10.5098 29.7401 10.7298 29.9601 11.0098 29.9601C11.2898 29.9601 11.5098 29.7401 11.5098 29.4601V27.3101L17.1798 19.7701C17.3498 19.5501 17.2998 19.2401 17.0798 19.0701C16.8598 18.9001 16.5398 18.9501 16.3798 19.1701L16.3698 19.1801ZM9.89977 21.9801H12.1598L12.7398 24.0101L10.9998 26.3201L9.30977 24.0701L9.89977 21.9801Z" fill="#696B6F"/>
<path d="M29.5195 29.02H19.5195C19.2395 29.02 19.0195 29.24 19.0195 29.52C19.0195 29.8 19.2395 30.02 19.5195 30.02H29.5195C29.7995 30.02 30.0195 29.8 30.0195 29.52C30.0195 29.24 29.7995 29.02 29.5195 29.02Z" fill="#696B6F"/>
<path d="M31.5195 26.02H19.5195C19.2395 26.02 19.0195 26.24 19.0195 26.52C19.0195 26.8 19.2395 27.02 19.5195 27.02H31.5195C31.7995 27.02 32.0195 26.8 32.0195 26.52C32.0195 26.24 31.7995 26.02 31.5195 26.02Z" fill="#696B6F"/>
<path d="M31.5195 23.02H19.5195C19.2395 23.02 19.0195 23.24 19.0195 23.52C19.0195 23.8 19.2395 24.02 19.5195 24.02H31.5195C31.7995 24.02 32.0195 23.8 32.0195 23.52C32.0195 23.24 31.7995 23.02 31.5195 23.02Z" fill="#696B6F"/>
<path d="M31.5195 20.02H19.5195C19.2395 20.02 19.0195 20.24 19.0195 20.52C19.0195 20.8 19.2395 21.02 19.5195 21.02H31.5195C31.7995 21.02 32.0195 20.8 32.0195 20.52C32.0195 20.24 31.7995 20.02 31.5195 20.02Z" fill="#696B6F"/>
<path d="M21.5195 18.02H31.5195C31.7995 18.02 32.0195 17.8 32.0195 17.52C32.0195 17.24 31.7995 17.02 31.5195 17.02H21.5195C21.2395 17.02 21.0195 17.24 21.0195 17.52C21.0195 17.8 21.2395 18.02 21.5195 18.02Z" fill="#696B6F"/>
</g>
</g>
<defs>
<clipPath id="clip0_2101_4248">
<rect width="32.02" height="32" fill="white"/>
</clipPath>
<clipPath id="clip1_2101_4248">
<rect width="32.02" height="28.04" fill="white" transform="translate(0 1.97998)"/>
</clipPath>
</defs>
</svg>
