<svg width="20" height="20" viewBox="0 0 20 20" fill="none" xmlns="http://www.w3.org/2000/svg">
<path d="M10 20C4.49 20 0 15.51 0 10C0 4.49 4.49 0 10 0C15.51 0 20 4.49 20 10C20 15.51 15.51 20 10 20ZM10 1C5.04 1 1 5.04 1 10C1 14.96 5.04 19 10 19C14.96 19 19 14.96 19 10C19 5.04 14.96 1 10 1Z" fill="#D0D0D0"/>
<path d="M9.99992 13.0799C9.44992 13.0799 8.99992 12.6299 8.99992 12.0799V10.5899C8.99992 10.0399 9.44992 9.58993 9.99992 9.58993C11.0099 9.58993 11.8299 8.76993 11.8299 7.75993C11.8299 6.74993 11.0099 5.92993 9.99992 5.92993C8.98992 5.92993 8.16992 6.74993 8.16992 7.75993C8.16992 8.30993 7.71992 8.75993 7.16992 8.75993C6.61992 8.75993 6.16992 8.30993 6.16992 7.75993C6.16992 5.64993 7.88992 3.92993 9.99992 3.92993C12.1099 3.92993 13.8299 5.64993 13.8299 7.75993C13.8299 9.52993 12.6299 11.0199 10.9999 11.4599V12.0799C10.9999 12.6299 10.5499 13.0799 9.99992 13.0799Z" fill="#D0D0D0"/>
<path d="M10 16C10.5523 16 11 15.5523 11 15C11 14.4477 10.5523 14 10 14C9.44772 14 9 14.4477 9 15C9 15.5523 9.44772 16 10 16Z" fill="#D0D0D0"/>
</svg>
