<svg width="31" height="32" viewBox="0 0 31 32" fill="none" xmlns="http://www.w3.org/2000/svg">
<g clip-path="url(#clip0_2101_4218)">
<g clip-path="url(#clip1_2101_4218)">
<path d="M10.5 23C8.52 23 6.59 22.44 4.92 21.39L0.85 22.13L1.71 18.25C0.59 16.54 0 14.56 0 12.51C0 6.71 4.71 2 10.5 2C16.29 2 21 6.71 21 12.5C21 18.29 16.29 23 10.5 23ZM5.13 20.33L5.3 20.44C6.85 21.46 8.65 22 10.51 22C15.75 22 20.01 17.74 20.01 12.5C20.01 7.26 15.74 3 10.5 3C5.26 3 1 7.26 1 12.5C1 14.42 1.57 16.28 2.66 17.86L2.78 18.04L2.15 20.87L5.13 20.33Z" fill="#696B6F"/>
<path d="M10.5002 15C10.2202 15 10.0002 14.78 10.0002 14.5V14.11C10.0002 13.06 10.6602 12.15 11.6802 11.77C12.5102 11.46 12.9402 10.93 12.9902 10.15C13.0502 9.16003 12.4502 8.30004 11.5302 8.07004C10.4202 7.79004 9.50023 8.42003 9.16023 9.20003C9.05023 9.45003 8.99023 9.72004 8.99023 10C8.99023 10.28 8.77023 10.5 8.49023 10.5C8.21023 10.5 7.99023 10.28 7.99023 10C7.99023 9.58003 8.07023 9.18004 8.24023 8.80004C8.83023 7.44004 10.3202 6.73004 11.7702 7.10004C13.1602 7.46004 14.0702 8.74004 13.9802 10.21C13.9102 11.38 13.2102 12.27 12.0202 12.71C11.4002 12.94 10.9902 13.49 10.9902 14.11V14.5C10.9902 14.78 10.7702 15 10.4902 15H10.5002Z" fill="#696B6F"/>
<path d="M10.5 18C10.22 18 10 17.78 10 17.5V16.5C10 16.22 10.22 16 10.5 16C10.78 16 11 16.22 11 16.5V17.5C11 17.78 10.78 18 10.5 18Z" fill="#696B6F"/>
<path d="M20.5009 30C15.8409 30 11.9009 26.67 11.1309 22.08L12.1209 21.91C12.8109 26.01 16.3309 28.99 20.5009 28.99C22.2109 28.99 23.8709 28.48 25.2809 27.51L25.4409 27.4L28.7709 27.88L27.7709 24.89L27.8809 24.7C28.6109 23.42 29.0009 21.97 29.0009 20.5C29.0009 15.81 25.1909 12 20.5009 12V11C25.7409 11 30.0009 15.26 30.0009 20.5C30.0009 22.07 29.6109 23.62 28.8609 25L30.2309 29.11L25.6809 28.46C24.1409 29.47 22.3509 30 20.5009 30Z" fill="#696B6F"/>
<path d="M24.5 24H16.5C16.22 24 16 23.78 16 23.5C16 23.22 16.22 23 16.5 23H24.5C24.78 23 25 23.22 25 23.5C25 23.78 24.78 24 24.5 24Z" fill="#696B6F"/>
<path d="M24.5 21H16.5C16.22 21 16 20.78 16 20.5C16 20.22 16.22 20 16.5 20H24.5C24.78 20 25 20.22 25 20.5C25 20.78 24.78 21 24.5 21Z" fill="#696B6F"/>
<path d="M24.5 18H19.5C19.22 18 19 17.78 19 17.5C19 17.22 19.22 17 19.5 17H24.5C24.78 17 25 17.22 25 17.5C25 17.78 24.78 18 24.5 18Z" fill="#696B6F"/>
</g>
</g>
<defs>
<clipPath id="clip0_2101_4218">
<rect width="30.23" height="32" fill="white"/>
</clipPath>
<clipPath id="clip1_2101_4218">
<rect width="30.23" height="28" fill="white" transform="translate(0 2)"/>
</clipPath>
</defs>
</svg>
