<svg width="32" height="32" viewBox="0 0 32 32" fill="none" xmlns="http://www.w3.org/2000/svg">
<path d="M14.5 28H2.5C1.12 28 0 26.88 0 25.5V4.5C0 3.12 1.12 2 2.5 2H14.5C15.88 2 17 3.12 17 4.5C17 4.78 16.78 5 16.5 5C16.22 5 16 4.78 16 4.5C16 3.67 15.33 3 14.5 3H2.5C1.67 3 1 3.67 1 4.5V25.5C1 26.33 1.67 27 2.5 27H14.5C14.78 27 15 27.22 15 27.5C15 27.78 14.78 28 14.5 28Z" fill="#696B6F"/>
<path d="M29.5 30H16.5C15.12 30 14 28.88 14 27.5V6.5C14 5.12 15.12 4 16.5 4H29.5C30.88 4 32 5.12 32 6.5V27.5C32 28.88 30.88 30 29.5 30ZM16.5 5C15.67 5 15 5.67 15 6.5V27.5C15 28.33 15.67 29 16.5 29H29.5C30.33 29 31 28.33 31 27.5V6.5C31 5.67 30.33 5 29.5 5H16.5Z" fill="#696B6F"/>
<path d="M28.5 25H17.5C17.22 25 17 24.78 17 24.5C17 24.22 17.22 24 17.5 24H28.5C28.78 24 29 24.22 29 24.5C29 24.78 28.78 25 28.5 25Z" fill="#696B6F"/>
<path d="M28.5 22H17.5C17.22 22 17 21.78 17 21.5C17 21.22 17.22 21 17.5 21H28.5C28.78 21 29 21.22 29 21.5C29 21.78 28.78 22 28.5 22Z" fill="#696B6F"/>
<path d="M28.5 19H17.5C17.22 19 17 18.78 17 18.5C17 18.22 17.22 18 17.5 18H28.5C28.78 18 29 18.22 29 18.5C29 18.78 28.78 19 28.5 19Z" fill="#696B6F"/>
<path d="M28.5 16H17.5C17.22 16 17 15.78 17 15.5C17 15.22 17.22 15 17.5 15H28.5C28.78 15 29 15.22 29 15.5C29 15.78 28.78 16 28.5 16Z" fill="#696B6F"/>
<path d="M14.5 23H3.5C3.22 23 3 22.78 3 22.5C3 22.22 3.22 22 3.5 22H14.5C14.78 22 15 22.22 15 22.5C15 22.78 14.78 23 14.5 23Z" fill="#696B6F"/>
<path d="M14.5 20H3.5C3.22 20 3 19.78 3 19.5C3 19.22 3.22 19 3.5 19H14.5C14.78 19 15 19.22 15 19.5C15 19.78 14.78 20 14.5 20Z" fill="#696B6F"/>
<path d="M14.5 17H3.5C3.22 17 3 16.78 3 16.5C3 16.22 3.22 16 3.5 16H14.5C14.78 16 15 16.22 15 16.5C15 16.78 14.78 17 14.5 17Z" fill="#696B6F"/>
<path d="M14.5 14H3.5C3.22 14 3 13.78 3 13.5C3 13.22 3.22 13 3.5 13H14.5C14.78 13 15 13.22 15 13.5C15 13.78 14.78 14 14.5 14Z" fill="#696B6F"/>
<path d="M14.5 9H3.5C3.22 9 3 8.78 3 8.5C3 8.22 3.22 8 3.5 8H14.5C14.78 8 15 8.22 15 8.5C15 8.78 14.78 9 14.5 9Z" fill="#696B6F"/>
<path d="M28.5 11H17.5C17.22 11 17 10.78 17 10.5C17 10.22 17.22 10 17.5 10H28.5C28.78 10 29 10.22 29 10.5C29 10.78 28.78 11 28.5 11Z" fill="#696B6F"/>
</svg>
