<svg width="32" height="32" viewBox="0 0 32 32" fill="none" xmlns="http://www.w3.org/2000/svg">
<path d="M18.5 8H13.5C13.22 8 13 7.78 13 7.5C13 7.22 13.22 7 13.5 7H18.5C18.78 7 19 7.22 19 7.5C19 7.78 18.78 8 18.5 8Z" fill="#696B6F"/>
<path d="M18.5 11H13.5C13.22 11 13 10.78 13 10.5C13 10.22 13.22 10 13.5 10H18.5C18.78 10 19 10.22 19 10.5C19 10.78 18.78 11 18.5 11Z" fill="#696B6F"/>
<path d="M19.5 17H13.5C13.22 17 13 16.78 13 16.5C13 16.22 13.22 16 13.5 16H19.5C19.78 16 20 16.22 20 16.5C20 16.78 19.78 17 19.5 17Z" fill="#696B6F"/>
<path d="M19.5 20H13.5C13.22 20 13 19.78 13 19.5C13 19.22 13.22 19 13.5 19H19.5C19.78 19 20 19.22 20 19.5C20 19.78 19.78 20 19.5 20Z" fill="#696B6F"/>
<path d="M19.5 23H13.5C13.22 23 13 22.78 13 22.5C13 22.22 13.22 22 13.5 22H19.5C19.78 22 20 22.22 20 22.5C20 22.78 19.78 23 19.5 23Z" fill="#696B6F"/>
<path d="M19.5 26H13.5C13.22 26 13 25.78 13 25.5C13 25.22 13.22 25 13.5 25H19.5C19.78 25 20 25.22 20 25.5C20 25.78 19.78 26 19.5 26Z" fill="#696B6F"/>
<path d="M21.5 14C21.22 14 21 13.78 21 13.5V7.5C21 7.22 21.22 7 21.5 7C21.78 7 22 7.22 22 7.5V13.5C22 13.78 21.78 14 21.5 14Z" fill="#696B6F"/>
<path d="M23.5 14C23.22 14 23 13.78 23 13.5V8.5C23 8.22 23.22 8 23.5 8C23.78 8 24 8.22 24 8.5V13.5C24 13.78 23.78 14 23.5 14Z" fill="#696B6F"/>
<path d="M25.5 14C25.22 14 25 13.78 25 13.5V5.5C25 5.22 25.22 5 25.5 5C25.78 5 26 5.22 26 5.5V13.5C26 13.78 25.78 14 25.5 14Z" fill="#696B6F"/>
<path d="M26.5 27C23.47 27 21 24.53 21 21.5C21 18.47 23.47 16 26.5 16C29.53 16 32 18.47 32 21.5C32 24.53 29.53 27 26.5 27ZM26.5 17C24.02 17 22 19.02 22 21.5C22 23.98 24.02 26 26.5 26C28.98 26 31 23.98 31 21.5C31 19.02 28.98 17 26.5 17Z" fill="#696B6F"/>
<path d="M26.5 30H12.5C11.12 30 10 28.88 10 27.5V4.5C10 3.12 11.12 2 12.5 2H26.5C27.88 2 29 3.12 29 4.5V16.84C29 17.12 28.78 17.34 28.5 17.34C28.22 17.34 28 17.12 28 16.84V4.5C28 3.67 27.33 3 26.5 3H12.5C11.67 3 11 3.67 11 4.5V27.5C11 28.33 11.67 29 12.5 29H26.5C27.33 29 28 28.33 28 27.5V26.14C28 25.86 28.22 25.64 28.5 25.64C28.78 25.64 29 25.86 29 26.14V27.5C29 28.88 27.88 30 26.5 30Z" fill="#696B6F"/>
<path d="M10.5 29H2.5C1.12 29 0 27.88 0 26.5V5.5C0 4.12 1.12 3 2.5 3H10.5C10.78 3 11 3.22 11 3.5C11 3.78 10.78 4 10.5 4H2.5C1.67 4 1 4.67 1 5.5V26.5C1 27.33 1.67 28 2.5 28H10.5C10.78 28 11 28.22 11 28.5C11 28.78 10.78 29 10.5 29Z" fill="#696B6F"/>
<path d="M10.5 9H3.5C3.22 9 3 8.78 3 8.5C3 8.22 3.22 8 3.5 8H10.5C10.78 8 11 8.22 11 8.5C11 8.78 10.78 9 10.5 9Z" fill="#696B6F"/>
<path d="M10.5 15H3.5C3.22 15 3 14.78 3 14.5C3 14.22 3.22 14 3.5 14H10.5C10.78 14 11 14.22 11 14.5C11 14.78 10.78 15 10.5 15Z" fill="#696B6F"/>
<path d="M10.5 18H3.5C3.22 18 3 17.78 3 17.5C3 17.22 3.22 17 3.5 17H10.5C10.78 17 11 17.22 11 17.5C11 17.78 10.78 18 10.5 18Z" fill="#696B6F"/>
<path d="M10.5 21H3.5C3.22 21 3 20.78 3 20.5C3 20.22 3.22 20 3.5 20H10.5C10.78 20 11 20.22 11 20.5C11 20.78 10.78 21 10.5 21Z" fill="#696B6F"/>
<path d="M10.5 24H3.5C3.22 24 3 23.78 3 23.5C3 23.22 3.22 23 3.5 23H10.5C10.78 23 11 23.22 11 23.5C11 23.78 10.78 24 10.5 24Z" fill="#696B6F"/>
<path d="M26.5 22C26.22 22 26 21.78 26 21.5V16.5C26 16.22 26.22 16 26.5 16C26.78 16 27 16.22 27 16.5V21.5C27 21.78 26.78 22 26.5 22Z" fill="#696B6F"/>
<path d="M31.5 22H26.5C26.22 22 26 21.78 26 21.5C26 21.22 26.22 21 26.5 21H31.5C31.78 21 32 21.22 32 21.5C32 21.78 31.78 22 31.5 22Z" fill="#696B6F"/>
</svg>
