<svg width="64" height="56" viewBox="0 0 64 56" fill="none" xmlns="http://www.w3.org/2000/svg">
<path d="M19 38H7C6.44 38 6 37.56 6 37C6 36.44 6.44 36 7 36H19C19.56 36 20 36.44 20 37C20 37.56 19.56 38 19 38Z" fill="#696B6F"/>
<path d="M19 32H7C6.44 32 6 31.56 6 31C6 30.44 6.44 30 7 30H19C19.56 30 20 30.44 20 31C20 31.56 19.56 32 19 32Z" fill="#696B6F"/>
<path d="M19 26H7C6.44 26 6 25.56 6 25C6 24.44 6.44 24 7 24H19C19.56 24 20 24.44 20 25C20 25.56 19.56 26 19 26Z" fill="#696B6F"/>
<path d="M19 20H7C6.44 20 6 19.56 6 19C6 18.44 6.44 18 7 18H19C19.56 18 20 18.44 20 19C20 19.56 19.56 20 19 20Z" fill="#696B6F"/>
<path d="M19 10H7C6.44 10 6 9.56 6 9C6 8.44 6.44 8 7 8H19C19.56 8 20 8.44 20 9C20 9.56 19.56 10 19 10Z" fill="#696B6F"/>
<path d="M48 22H26C25.44 22 25 21.56 25 21C25 20.44 25.44 20 26 20H48C48.56 20 49 20.44 49 21C49 21.56 48.56 22 48 22Z" fill="#696B6F"/>
<path d="M48 14H26C25.44 14 25 13.56 25 13C25 12.44 25.44 12 26 12H48C48.56 12 49 12.44 49 13C49 13.56 48.56 14 48 14Z" fill="#696B6F"/>
<path d="M48 26C55.72 26 62 32.28 62 40C62 47.72 55.72 54 48 54C40.28 54 34 47.72 34 40C34 32.28 40.28 26 48 26ZM48 24C39.16 24 32 31.16 32 40C32 48.84 39.16 56 48 56C56.84 56 64 48.84 64 40C64 31.16 56.84 24 48 24Z" fill="#696B6F"/>
<path d="M46 46.0001C45.74 46.0001 45.48 45.9001 45.3 45.7001L41.3 41.7001C40.9 41.3001 40.9 40.6801 41.3 40.2801C41.7 39.8801 42.32 39.8801 42.72 40.2801L45.94 43.4801L53.24 34.3601C53.58 33.9401 54.22 33.8601 54.64 34.2001C55.08 34.5401 55.14 35.1801 54.8 35.6001L46.8 45.6001C46.62 45.8201 46.36 45.9601 46.08 45.9801H46.02L46 46.0001Z" fill="#696B6F"/>
<path d="M20 46H5C3.34 46 2 44.66 2 43V5C2 3.34 3.34 2 5 2H26V0H5C2.24 0 0 2.24 0 5V43C0 45.76 2.24 48 5 48H20V46Z" fill="#696B6F"/>
<path d="M35.52 50H24C22.34 50 21 48.66 21 47V5C21 3.34 22.34 2 24 2H50C51.66 2 53 3.34 53 5V24.8C53.7 25.02 54.36 25.3 55 25.62V5C55 2.24 52.76 0 50 0H24C21.24 0 19 2.24 19 5V47C19 49.76 21.24 52 24 52H37.44C36.74 51.38 36.1 50.72 35.52 50Z" fill="#696B6F"/>
<path d="M40.26 26H26C25.44 26 25 26.44 25 27C25 27.56 25.44 28 26 28H37.44C38.3 27.24 39.24 26.56 40.26 26Z" fill="#696B6F"/>
<path d="M34.16 32H26C25.44 32 25 32.44 25 33C25 33.56 25.44 34 26 34H33.18C33.46 33.3 33.8 32.64 34.16 32Z" fill="#696B6F"/>
<path d="M26 38C25.44 38 25 38.44 25 39C25 39.56 25.44 40 26 40H32C32 39.32 32.06 38.66 32.14 38H26Z" fill="#696B6F"/>
</svg>
