<svg width="32" height="32" viewBox="0 0 32 32" fill="none" xmlns="http://www.w3.org/2000/svg">
<g clip-path="url(#clip0_2101_4105)">
<path d="M20.9693 28.6801C20.7993 28.6801 20.6393 28.5901 20.5393 28.4401C20.3993 28.2001 20.4693 27.9001 20.7093 27.7501C24.0193 25.7301 25.9993 22.2201 25.9993 18.3501C25.9993 12.2801 21.0693 7.3501 14.9993 7.3501C10.8093 7.3501 6.91928 9.7901 5.08928 13.5701C4.96928 13.8201 4.66928 13.9201 4.41928 13.8001C4.16928 13.6801 4.06928 13.3801 4.18928 13.1301C6.17928 9.0101 10.4293 6.3501 14.9993 6.3501C21.6193 6.3501 26.9993 11.7301 26.9993 18.3501C26.9993 22.5701 24.8393 26.4101 21.2293 28.6101C21.1493 28.6601 21.0593 28.6801 20.9693 28.6801Z" fill="#696B6F"/>
<path d="M27.4193 29.3301C27.2993 29.3301 27.1793 29.2901 27.0793 29.2001C26.8793 29.0101 26.8593 28.7001 27.0493 28.4901C29.5993 25.7201 30.9993 22.1101 30.9993 18.3501C30.9993 10.0801 24.2693 3.3501 15.9993 3.3501C9.57933 3.3501 3.86933 7.4301 1.79933 13.5101C1.70933 13.7701 1.42933 13.9101 1.16933 13.8201C0.909332 13.7301 0.769332 13.4501 0.859332 13.1901C3.06933 6.7101 9.15933 2.3501 16.0093 2.3501C24.8293 2.3501 32.0093 9.5301 32.0093 18.3501C32.0093 22.3701 30.5093 26.2101 27.7993 29.1701C27.6993 29.2801 27.5693 29.3301 27.4293 29.3301H27.4193Z" fill="#696B6F"/>
<path d="M15 10.3401C14.72 10.3401 14.5 10.1201 14.5 9.84009V6.84009C14.5 6.56009 14.72 6.34009 15 6.34009C15.28 6.34009 15.5 6.56009 15.5 6.84009V9.84009C15.5 10.1201 15.28 10.3401 15 10.3401Z" fill="#696B6F"/>
<path d="M26.5 18.8401H23.5C23.22 18.8401 23 18.6201 23 18.3401C23 18.0601 23.22 17.8401 23.5 17.8401H26.5C26.78 17.8401 27 18.0601 27 18.3401C27 18.6201 26.78 18.8401 26.5 18.8401Z" fill="#696B6F"/>
<path d="M8.98914 12.83C8.85914 12.83 8.72914 12.78 8.63914 12.68L6.51914 10.56C6.31914 10.36 6.31914 10.05 6.51914 9.84995C6.71914 9.64995 7.02914 9.64995 7.22914 9.84995L9.34914 11.97C9.54914 12.17 9.54914 12.48 9.34914 12.68C9.24914 12.78 9.11914 12.83 8.99914 12.83H8.98914Z" fill="#696B6F"/>
<path d="M21.0098 12.83C20.8798 12.83 20.7498 12.78 20.6598 12.68C20.4598 12.48 20.4598 12.17 20.6598 11.97L22.7798 9.84995C22.9798 9.64995 23.2898 9.64995 23.4898 9.84995C23.6898 10.05 23.6898 10.36 23.4898 10.56L21.3698 12.68C21.2698 12.78 21.1398 12.83 21.0198 12.83H21.0098Z" fill="#696B6F"/>
<path d="M14.6504 21.1999C14.0104 21.1999 13.3704 20.9599 12.8804 20.4699C12.4104 19.9999 12.1504 19.3699 12.1504 18.6999C12.1504 18.0299 12.4104 17.3999 12.8804 16.9299C13.7004 16.1099 18.8004 13.5899 19.3804 13.2999C19.5704 13.2099 19.8004 13.2399 19.9604 13.3899C20.1104 13.5399 20.1504 13.7699 20.0504 13.9599C19.7604 14.5399 17.2404 19.6399 16.4204 20.4599C15.9304 20.9499 15.2904 21.1899 14.6504 21.1899V21.1999ZM18.4804 14.8699C16.4404 15.9099 14.0204 17.2099 13.5904 17.6399C13.3104 17.9199 13.1504 18.2999 13.1504 18.6999C13.1504 19.0999 13.3104 19.4799 13.5904 19.7599C14.1704 20.3399 15.1304 20.3399 15.7104 19.7599C16.1404 19.3299 17.4404 16.9099 18.4804 14.8699Z" fill="#696B6F"/>
<path d="M8.5 18.3401H0.5C0.22 18.3401 0 18.1201 0 17.8401C0 17.5601 0.22 17.3401 0.5 17.3401H8.5C8.78 17.3401 9 17.5601 9 17.8401C9 18.1201 8.78 18.3401 8.5 18.3401Z" fill="#696B6F"/>
<path d="M9.5 22.3401H1.5C1.22 22.3401 1 22.1201 1 21.8401C1 21.5601 1.22 21.3401 1.5 21.3401H9.5C9.78 21.3401 10 21.5601 10 21.8401C10 22.1201 9.78 22.3401 9.5 22.3401Z" fill="#696B6F"/>
<path d="M10.5 26.3401H2.5C2.22 26.3401 2 26.1201 2 25.8401C2 25.5601 2.22 25.3401 2.5 25.3401H10.5C10.78 25.3401 11 25.5601 11 25.8401C11 26.1201 10.78 26.3401 10.5 26.3401Z" fill="#696B6F"/>
</g>
<defs>
<clipPath id="clip0_2101_4105">
<rect width="32" height="32" fill="white"/>
</clipPath>
</defs>
</svg>
