<svg width="32" height="30" viewBox="0 0 32 30" fill="none" xmlns="http://www.w3.org/2000/svg">
<g clip-path="url(#clip0_2101_3558)">
<path d="M28.74 6.95996C29.92 6.95996 31 7.80996 31 8.95996V25.96C31 27.11 30.05 28.04 28.87 28.04H3.13C1.95 28.04 1 27.11 1 25.96V8.95996C1 7.80996 1.82 6.95996 3 6.95996H28.74ZM28.74 5.95996H3C1.29 5.95996 0 7.24996 0 8.95996V25.96C0 27.66 1.4 29.04 3.13 29.04H28.87C30.6 29.04 32 27.66 32 25.96V8.95996C32 7.30996 30.54 5.95996 28.74 5.95996Z" fill="#696B6F"/>
<path d="M21 6.95996H11C10.72 6.95996 10.5 6.73996 10.5 6.45996V3.45996C10.5 2.07996 11.62 0.959961 13 0.959961H19C20.38 0.959961 21.5 2.07996 21.5 3.45996V6.45996C21.5 6.73996 21.28 6.95996 21 6.95996ZM11.5 5.95996H20.5V3.45996C20.5 2.62996 19.83 1.95996 19 1.95996H13C12.17 1.95996 11.5 2.62996 11.5 3.45996V5.95996Z" fill="#696B6F"/>
<path d="M12.5005 15.9599C12.4305 15.9599 12.3505 15.9399 12.2805 15.9099L0.780451 10.4099C0.530451 10.2899 0.430451 9.98992 0.540451 9.73992C0.660451 9.48992 0.960451 9.38992 1.21045 9.49992L12.7105 14.9999C12.9605 15.1199 13.0605 15.4199 12.9505 15.6699C12.8605 15.8499 12.6905 15.9499 12.5005 15.9499V15.9599Z" fill="#696B6F"/>
<path d="M19.5006 15.9601C19.3106 15.9601 19.1306 15.8601 19.0506 15.6801C18.9306 15.4301 19.0406 15.1301 19.2906 15.0101L30.7906 9.51012C31.0406 9.39012 31.3406 9.50012 31.4606 9.75012C31.5806 10.0001 31.4706 10.3001 31.2206 10.4201L19.7206 15.9201C19.6506 15.9501 19.5806 15.9701 19.5006 15.9701V15.9601Z" fill="#696B6F"/>
<path d="M19 15.96V19.96H13V15.96H19ZM19 14.96H13C12.45 14.96 12 15.41 12 15.96V19.96C12 20.51 12.45 20.96 13 20.96H19C19.55 20.96 20 20.51 20 19.96V15.96C20 15.41 19.55 14.96 19 14.96Z" fill="#696B6F"/>
</g>
<defs>
<clipPath id="clip0_2101_3558">
<rect width="32" height="28.08" fill="white" transform="translate(0 0.959961)"/>
</clipPath>
</defs>
</svg>
