<svg width="28" height="32" viewBox="0 0 28 32" fill="none" xmlns="http://www.w3.org/2000/svg">
<g clip-path="url(#clip0_2101_4230)">
<path d="M14 25C10.14 25 7 21.86 7 18V13.5C7 11.02 9.02 9 11.5 9C11.78 9 12 9.22 12 9.5C12 12.53 14.47 15 17.5 15H20.5C20.78 15 21 15.22 21 15.5V18C21 21.86 17.86 25 14 25ZM11.02 10.03C9.32 10.26 8 11.73 8 13.5V18C8 21.31 10.69 24 14 24C17.31 24 20 21.31 20 18V16H17.5C14.1 16 11.29 13.37 11.02 10.03Z" fill="#696B6F"/>
<path d="M24.4499 12.5C24.1999 12.5 23.9799 12.31 23.9499 12.05C23.4599 6.89 19.1799 3 13.9899 3C8.79985 3 4.52985 6.89 4.03985 12.05C4.00985 12.33 3.74985 12.53 3.49985 12.5C3.21985 12.47 3.01985 12.23 3.04985 11.96C3.58985 6.28 8.28985 2 13.9999 2C19.7099 2 24.4099 6.28 24.9499 11.95C24.9799 12.22 24.7699 12.47 24.4999 12.49C24.4799 12.49 24.4699 12.49 24.4499 12.49V12.5Z" fill="#696B6F"/>
<path d="M24.5 21H23.5C23.22 21 23 20.78 23 20.5C23 20.22 23.22 20 23.5 20H24.5C25.33 20 26 19.33 26 18.5V14.5C26 13.82 25.54 13.22 24.88 13.05C24.76 13.02 24.63 13 24.5 13H22C21.72 13 21.5 12.78 21.5 12.5V12C21.14 8.32 17.91 5.5 14 5.5C10.09 5.5 6.86 8.32 6.5 12.05V12.5C6.5 12.78 6.28 13 6 13H3.5C2.67 13 2 13.67 2 14.5V18.5C2 19.33 2.67 20 3.5 20H4.5C4.78 20 5 20.22 5 20.5C5 20.78 4.78 21 4.5 21H3.5C2.12 21 1 19.88 1 18.5V14.5C1 13.12 2.12 12 3.5 12H5.5C5.92 7.7 9.57 4.5 14 4.5C18.43 4.5 22.08 7.7 22.5 11.95V12H24.5C24.71 12 24.92 12.03 25.12 12.08C26.22 12.36 27 13.36 27 14.5V18.5C27 19.88 25.88 21 24.5 21Z" fill="#696B6F"/>
<path d="M4.5 21C4.22 21 4 20.78 4 20.5V12.5C4 12.22 4.22 12 4.5 12C4.78 12 5 12.22 5 12.5V20.5C5 20.78 4.78 21 4.5 21Z" fill="#696B6F"/>
<path d="M23.5 21C23.22 21 23 20.78 23 20.5V12.5C23 12.22 23.22 12 23.5 12C23.78 12 24 12.22 24 12.5V20.5C24 20.78 23.78 21 23.5 21Z" fill="#696B6F"/>
<path d="M17 29H15.5V28H17C21.14 28 24.5 24.64 24.5 20.5H25.5C25.5 25.19 21.69 29 17 29Z" fill="#696B6F"/>
<path d="M14 30C12.9 30 12 29.1 12 28C12 26.9 12.9 26 14 26C15.1 26 16 26.9 16 28C16 29.1 15.1 30 14 30ZM14 27C13.45 27 13 27.45 13 28C13 28.55 13.45 29 14 29C14.55 29 15 28.55 15 28C15 27.45 14.55 27 14 27Z" fill="#696B6F"/>
<path d="M10 25.5H8C5.52 25.5 3.5 23.48 3.5 21H4.5C4.5 22.93 6.07 24.5 8 24.5H10V25.5Z" fill="#696B6F"/>
<path d="M20 25H18V24H20C21.93 24 23.5 22.43 23.5 20.5H24.5C24.5 22.98 22.48 25 20 25Z" fill="#696B6F"/>
<path d="M10.5 27C10.22 27 10 26.78 10 26.5V23.5C10 23.22 10.22 23 10.5 23C10.78 23 11 23.22 11 23.5V26.5C11 26.78 10.78 27 10.5 27Z" fill="#696B6F"/>
<path d="M17.5 27C17.22 27 17 26.78 17 26.5V23.5C17 23.22 17.22 23 17.5 23C17.78 23 18 23.22 18 23.5V26.5C18 26.78 17.78 27 17.5 27Z" fill="#696B6F"/>
<path d="M0.499595 30C0.289595 30 0.089595 29.86 0.019595 29.64C-0.060405 29.38 0.089595 29.1 0.349595 29.02L10.3496 26.02C10.6096 25.94 10.8896 26.09 10.9696 26.36C11.0496 26.62 10.8996 26.9 10.6396 26.98L0.639595 29.98C0.639595 29.98 0.539595 30 0.499595 30Z" fill="#696B6F"/>
<path d="M27.4992 30.0001C27.4992 30.0001 27.3992 30.0001 27.3592 29.9801L17.3592 26.9801C17.0992 26.9001 16.9392 26.6201 17.0292 26.3601C17.1092 26.1001 17.3892 25.9501 17.6492 26.0201L27.6492 29.0201C27.9092 29.1001 28.0692 29.3801 27.9792 29.6401C27.9192 29.8601 27.7192 30.0001 27.4992 30.0001Z" fill="#696B6F"/>
</g>
<defs>
<clipPath id="clip0_2101_4230">
<rect width="28" height="28" fill="white" transform="translate(0 2)"/>
</clipPath>
</defs>
</svg>
