<svg width="20" height="20" viewBox="0 0 20 20" fill="none" xmlns="http://www.w3.org/2000/svg">
<path d="M10.0009 16C9.58093 16 9.18093 15.82 8.89093 15.51L4.26093 11.39C4.01093 11.16 3.93093 10.82 4.05093 10.51C4.17093 10.2 4.46093 10 4.80093 10H6.50093C6.78093 10 7.00093 9.78 7.00093 9.5V1.5C7.00093 0.67 7.67093 0 8.50093 0H11.5009C12.3309 0 13.0009 0.67 13.0009 1.5V9.5C13.0009 9.78 13.2209 10 13.5009 10H15.2009C15.5309 10 15.8309 10.2 15.9509 10.51C16.0709 10.82 15.9909 11.17 15.7409 11.39L11.0709 15.55C10.8209 15.82 10.4209 16 10.0009 16ZM5.33093 11L9.60093 14.8C9.86093 15.08 10.1809 15.04 10.3709 14.84L14.6709 11H13.5009C12.6709 11 12.0009 10.33 12.0009 9.5V1.5C12.0009 1.22 11.7809 1 11.5009 1H8.50093C8.22093 1 8.00093 1.22 8.00093 1.5V9.5C8.00093 10.33 7.33093 11 6.50093 11H5.33093Z" fill="#696B6F"/>
<path d="M17.5 20H2.5C2.22 20 2 19.78 2 19.5V15.5C2 15.22 2.22 15 2.5 15C2.78 15 3 15.22 3 15.5V19H17V15.5C17 15.22 17.22 15 17.5 15C17.78 15 18 15.22 18 15.5V19.5C18 19.78 17.78 20 17.5 20Z" fill="#696B6F"/>
</svg>
