<svg xmlns="http://www.w3.org/2000/svg" width="60" height="60" viewBox="0 0 60 60"><path fill-rule="evenodd" fill="#AA353D" d="M51.339 51.331c-5.346 5.346-12.712 8.645-20.845 8.645-8.162 0-15.527-3.299-20.874-8.645C4.275 45.985.976 38.62.976 30.487c0-8.161 3.299-15.527 8.644-20.873C14.967 4.268 22.332.968 30.494.968c8.133 0 15.499 3.3 20.845 8.646 5.346 5.346 8.646 12.712 8.646 20.873 0 8.133-3.3 15.498-8.646 20.844zm-1.421-40.295C44.94 6.059 38.087 2.987 30.494 2.987a27.42 27.42 0 0 0-19.451 8.049 27.426 27.426 0 0 0-8.048 19.451c0 7.592 3.072 14.445 8.048 19.422a27.42 27.42 0 0 0 19.451 8.049c7.593 0 14.446-3.072 19.424-8.049 4.976-4.977 8.047-11.83 8.047-19.422a27.425 27.425 0 0 0-8.047-19.451zM38.94 44.563H22.134c-.91 0-1.764-.37-2.389-.967-.625-.596-1.024-1.421-1.024-2.332V21.159l6.085-5.971H38.94c.911 0 1.735.369 2.332.967.597.597.995 1.422.995 2.331v22.778c0 .911-.398 1.736-.995 2.332a3.288 3.288 0 0 1-2.332.967zm1.308-26.077c0-.341-.142-.683-.397-.909a1.225 1.225 0 0 0-.911-.399H25.631l.029 4.805-4.948.029v19.252c0 .342.171.655.398.882.004.004.008.005.012.008.57-2.247 3.248-5.002 6.781-5.657.835.929 1.774 1.496 2.592 1.496.819 0 1.723-.585 2.559-1.496 3.532.637 6.227 3.436 6.819 5.647.238-.227.375-.551.375-.88V18.486zm-9.753 17.787c-1.79 0-4.195-3.458-4.195-6.676 0-3.217 1.347-5.591 4.195-5.591 2.849 0 4.213 2.546 4.213 5.591 0 3.063-2.422 6.676-4.213 6.676z"/></svg>