<svg width="24" height="24" viewBox="0 0 24 24" fill="none" xmlns="http://www.w3.org/2000/svg">
<circle cx="12" cy="12" r="12" fill="#83B143"/>
<path d="M6.70711 10.2929C6.31658 9.90237 5.68342 9.90237 5.29289 10.2929C4.90237 10.6834 4.90237 11.3166 5.29289 11.7071L6.70711 10.2929ZM18.7071 9.70711C19.0976 9.31658 19.0976 8.68342 18.7071 8.29289C18.3166 7.90237 17.6834 7.90237 17.2929 8.29289L18.7071 9.70711ZM11 16L10.2929 16.7071C10.6834 17.0976 11.3166 17.0976 11.7071 16.7071L11 16ZM5.29289 11.7071L10.2929 16.7071L11.7071 15.2929L6.70711 10.2929L5.29289 11.7071ZM11.7071 16.7071L18.7071 9.70711L17.2929 8.29289L10.2929 15.2929L11.7071 16.7071Z" fill="white"/>
</svg>
