<svg width="246" height="239" viewBox="0 0 246 239" fill="none" xmlns="http://www.w3.org/2000/svg">
<path d="M122.998 226.552C62.2584 226.552 12.6541 178.752 12.6541 119.5C12.6541 60.2479 62.2584 12.4479 122.998 12.4479C183.738 12.4479 233.342 60.2479 233.342 119.5C233.342 178.752 184.244 226.552 122.998 226.552ZM122.998 0C55.1721 0 0 53.2771 0 119.5C0 185.723 55.1721 239 122.998 239C190.824 239 245.997 185.723 245.997 119.5C246.503 53.2771 191.331 0 122.998 0ZM150.331 161.325C160.455 171.781 158.936 191.698 155.899 201.158C155.899 201.656 155.393 202.652 154.381 203.15C148.813 205.142 141.726 206.635 138.183 207.133C153.368 193.192 155.899 173.275 150.331 161.325ZM208.034 149.375C194.368 137.923 177.664 129.956 162.479 127.467C178.676 134.438 193.861 150.371 201.96 165.806C203.479 163.317 207.022 157.84 209.046 151.865C209.046 150.371 208.54 149.375 208.034 149.375ZM214.614 119.5C214.614 118.504 214.108 118.504 214.108 118.006C204.491 114.023 198.417 113.027 198.417 113.027C200.948 112.031 202.972 109.044 202.972 107.55C196.898 110.538 189.812 111.533 185.257 111.035C193.861 114.521 206.009 120.496 214.108 126.969C214.614 124.479 214.614 121.492 214.614 119.5ZM165.01 151.367C168.553 152.363 173.109 152.86 176.146 151.367C160.961 147.383 152.356 126.969 118.443 123.981C116.924 123.981 113.381 124.479 115.406 120.994C117.43 118.006 131.097 109.044 131.097 109.044C128.566 109.044 116.924 110.04 113.381 110.538C109.838 111.035 109.332 110.04 108.826 107.55C108.826 107.55 101.739 114.023 105.282 117.01C105.789 117.508 107.307 117.508 108.826 117.01L114.9 115.019C114.9 115.019 115.406 115.019 115.406 115.517C114.393 116.513 112.875 119.998 112.369 121.492C111.863 123.483 111.356 124.479 114.9 125.475C117.937 126.471 133.628 131.45 143.245 137.425C152.862 143.898 175.639 160.827 174.627 193.192C180.195 189.706 184.75 185.723 187.787 182.735C188.294 182.238 188.294 181.242 188.294 180.744C184.244 171.283 175.133 157.84 165.01 151.367ZM200.442 84.1479C198.923 89.1271 195.886 91.6167 193.861 92.1146C190.824 93.1104 187.787 92.1146 187.787 92.1146L185.257 94.6042C184.244 95.6 183.232 95.1021 183.738 94.1062C183.738 93.6083 183.738 92.6125 183.232 91.6167C182.22 90.1229 181.207 91.6167 180.195 92.1146C178.676 92.6125 178.676 90.6208 178.676 90.6208C171.084 89.1271 167.541 92.6125 167.541 92.6125C173.109 93.1104 175.64 96.5958 176.146 98.0896C176.652 99.5833 179.689 99.5833 181.207 98.5875C181.713 98.0896 182.726 97.5917 182.726 99.0854C182.726 99.5833 182.726 100.081 182.22 101.077C184.75 102.571 185.257 102.571 184.75 104.065C181.713 109.044 179.183 108.048 178.676 108.048C168.047 104.065 157.924 102.571 151.85 102.571L155.393 99.0854C112.369 99.0854 104.776 104.065 102.752 107.052C101.233 109.044 102.752 112.031 102.752 112.031C97.69 113.027 84.5297 115.019 78.9619 120.496C73.9002 124.977 73.394 134.935 72.8879 138.919C75.4187 136.429 78.4557 134.935 80.9865 133.442C87.0605 130.952 93.6407 131.45 102.245 131.45C105.789 131.45 107.813 132.944 108.826 134.935C109.838 136.927 107.307 136.927 105.789 135.931C98.1962 131.45 95.6653 139.915 87.5667 137.425C90.0975 140.413 93.6407 140.412 95.6653 139.915C103.764 136.927 105.789 139.915 105.789 140.91C100.727 140.413 92.6283 143.898 88.579 144.396C83.5173 145.392 78.9619 145.392 78.9619 145.392C81.9989 149.375 87.0605 149.375 90.0975 149.375C93.6406 149.375 104.776 148.379 111.356 149.375C128.566 150.869 129.578 166.304 119.455 175.765C127.554 173.773 130.591 166.304 130.591 166.304C136.665 192.196 112.369 205.64 92.1222 201.656C82.505 199.665 74.9125 195.681 69.3447 191.698C65.2954 188.71 61.7522 185.723 60.7399 184.727C73.9002 188.213 93.6407 188.212 107.307 182.237C81.4927 182.735 63.7769 176.262 51.6289 169.79C46.5672 167.3 45.5549 166.304 43.5303 163.317C39.4809 156.844 36.9501 150.869 34.9254 141.906C45.0487 150.371 66.3077 161.823 76.9372 162.819C50.1104 147.383 36.4439 125.475 35.4316 122.985C34.4193 120.994 32.3946 119.002 32.3946 114.023C32.9008 107.55 34.9254 98.0896 37.4563 91.6167C40.4933 100.579 48.5919 116.513 58.2091 124.479C48.5919 105.06 47.0734 79.6667 47.5796 75.1854C47.5796 73.1938 48.0857 71.7 49.6042 69.2104C52.1351 65.725 57.7029 59.75 63.2707 54.7708C62.2584 61.7417 60.2337 76.1812 62.7645 89.625C66.3077 68.2146 74.9125 51.7833 80.4803 44.3146C81.4927 42.8208 82.505 41.825 84.5297 40.8292C87.0605 39.3354 94.653 36.3479 103.258 34.3563C95.6653 39.3354 89.5913 49.2937 87.5667 54.2729C112.875 30.3729 137.171 30.8708 151.344 24.3979C154.381 23.4021 155.899 25.3938 155.393 27.3854C154.887 29.3771 154.381 33.3604 154.381 33.3604C162.985 35.3521 167.035 39.3354 167.035 39.3354C166.529 38.3396 167.035 36.3479 167.035 36.3479C179.183 46.8042 182.726 54.7708 182.726 60.7458C182.22 66.7208 186.775 69.7083 189.306 71.2021C191.837 72.6958 201.454 78.1729 203.479 79.6667C203.985 80.1646 201.96 83.1521 200.442 84.1479ZM146.282 30.8708C142.739 32.8625 139.196 36.3479 136.665 41.3271C136.159 42.3229 137.171 43.3188 138.183 42.3229C141.22 40.8292 144.763 39.8333 144.763 39.8333C143.751 37.3438 147.294 32.8625 148.813 30.8708C149.319 30.3729 148.813 29.3771 146.282 30.8708ZM176.146 55.7667C175.133 62.2396 174.121 61.7417 172.603 61.2438C170.072 60.2479 165.01 59.75 162.985 60.2479C168.047 64.7292 171.59 71.2021 171.59 71.2021C172.096 69.2104 171.084 65.725 170.072 64.2312C169.565 63.2354 170.072 63.2354 171.084 63.7333C171.59 63.7333 173.109 64.2313 174.121 64.7292C176.146 65.2271 176.146 64.7292 176.652 63.2354C176.652 62.2396 177.158 59.75 176.146 55.7667ZM113.381 84.6458C114.393 84.1479 117.937 82.6542 119.961 82.1563C119.961 82.1563 117.937 88.6292 118.443 98.5875C121.986 98.0896 126.035 97.5917 130.085 97.5917C123.504 95.1021 124.011 83.1521 128.566 77.1771C130.085 75.1854 128.566 75.1854 126.541 75.6833C124.517 76.1813 122.998 76.6792 120.974 77.675C120.974 77.675 121.986 61.7417 136.159 49.2937C122.998 54.2729 112.875 73.1938 113.381 84.6458Z" fill="#919497" fill-opacity="0.1"/>
</svg>
