<svg width="47" height="36" viewBox="0 0 47 36" fill="none" xmlns="http://www.w3.org/2000/svg">
<g clip-path="url(#clip0_2136_7304)">
<path d="M9.10323 35.9212V33.5321C9.10323 32.6181 8.55079 32.0197 7.60243 32.0197C7.12825 32.0197 6.61264 32.1774 6.25815 32.697C5.98193 32.2609 5.58602 32.0197 4.99214 32.0197C4.59622 32.0197 4.20031 32.1403 3.88726 32.5764V32.0986H3.05859V35.9212H3.88726V33.8104C3.88726 33.1331 4.24174 32.813 4.79418 32.813C5.34662 32.813 5.62285 33.1702 5.62285 33.8104V35.9212H6.45151V33.8104C6.45151 33.1331 6.84742 32.813 7.35843 32.813C7.91088 32.813 8.1871 33.1702 8.1871 33.8104V35.9212H9.10323ZM21.3951 32.0986H20.0508V30.9434H19.2221V32.0986H18.4717V32.8547H19.2221V34.6083C19.2221 35.4852 19.5766 36.0001 20.525 36.0001C20.8795 36.0001 21.2754 35.8795 21.5516 35.7217L21.3122 35.0027C21.0728 35.1604 20.7966 35.2022 20.5986 35.2022C20.2027 35.2022 20.0462 34.9609 20.0462 34.5666V32.8547H21.3905V32.0986H21.3951ZM28.4295 32.015C27.9553 32.015 27.6377 32.2563 27.4397 32.5717V32.0939H26.611V35.9166H27.4397V33.764C27.4397 33.1284 27.7159 32.7666 28.2315 32.7666C28.3881 32.7666 28.586 32.8083 28.7471 32.8455L28.9865 32.0475C28.8208 32.015 28.586 32.015 28.4295 32.015ZM17.7996 32.414C17.4037 32.1357 16.8512 32.015 16.2574 32.015C15.309 32.015 14.6783 32.4929 14.6783 33.2491C14.6783 33.8846 15.1525 34.2465 15.9811 34.3625L16.377 34.4042C16.8098 34.4831 17.0492 34.6037 17.0492 34.8032C17.0492 35.0815 16.7315 35.281 16.1791 35.281C15.6266 35.281 15.1893 35.0815 14.9131 34.8821L14.5172 35.5176C14.9499 35.8377 15.5438 35.9955 16.1377 35.9955C17.2425 35.9955 17.8778 35.4759 17.8778 34.7614C17.8778 34.0841 17.3622 33.7269 16.575 33.6063L16.1791 33.5645C15.8246 33.5228 15.5484 33.4439 15.5484 33.2073C15.5484 32.929 15.8246 32.7712 16.262 32.7712C16.7361 32.7712 17.2103 32.9707 17.4497 33.0913L17.7996 32.414ZM39.8466 32.015C39.3724 32.015 39.0548 32.2563 38.8568 32.5717V32.0939H38.0282V35.9166H38.8568V33.764C38.8568 33.1284 39.1331 32.7666 39.6487 32.7666C39.8052 32.7666 40.0031 32.8083 40.1643 32.8455L40.4037 32.0568C40.2425 32.015 40.0078 32.015 39.8466 32.015ZM29.2582 34.0099C29.2582 35.165 30.05 36.0001 31.2746 36.0001C31.827 36.0001 32.2229 35.8795 32.6188 35.564L32.2229 34.8867C31.9053 35.1279 31.5922 35.2439 31.2331 35.2439C30.561 35.2439 30.0868 34.7661 30.0868 34.0099C30.0868 33.2908 30.561 32.813 31.2331 32.7759C31.5876 32.7759 31.9053 32.8965 32.2229 33.1331L32.6188 32.4558C32.2229 32.1357 31.827 32.0197 31.2746 32.0197C30.05 32.015 29.2582 32.8547 29.2582 34.0099ZM36.9233 34.0099V32.0986H36.0946V32.5764C35.8184 32.2192 35.4225 32.0197 34.9069 32.0197C33.8388 32.0197 33.0102 32.8547 33.0102 34.0099C33.0102 35.165 33.8388 36.0001 34.9069 36.0001C35.4593 36.0001 35.8552 35.8006 36.0946 35.4434V35.9212H36.9233V34.0099ZM33.8803 34.0099C33.8803 33.3326 34.313 32.7759 35.0266 32.7759C35.6987 32.7759 36.1729 33.2955 36.1729 34.0099C36.1729 34.6872 35.6987 35.2439 35.0266 35.2439C34.3176 35.2022 33.8803 34.6826 33.8803 34.0099ZM23.9639 32.015C22.859 32.015 22.0672 32.813 22.0672 34.0053C22.0672 35.2022 22.859 35.9955 24.0054 35.9955C24.5578 35.9955 25.1102 35.8377 25.5476 35.4759L25.1517 34.8774C24.834 35.1187 24.4381 35.2764 24.0468 35.2764C23.5312 35.2764 23.0202 35.0352 22.9005 34.3625H25.7041C25.7041 34.2419 25.7041 34.163 25.7041 34.0424C25.7409 32.813 25.0274 32.015 23.9639 32.015ZM23.9639 32.7341C24.4795 32.7341 24.834 33.0542 24.9123 33.648H22.9373C23.0156 33.1331 23.37 32.7341 23.9639 32.7341ZM44.5516 34.0099V30.5862H43.7229V32.5764C43.4467 32.2192 43.0508 32.0197 42.5352 32.0197C41.4671 32.0197 40.6385 32.8547 40.6385 34.0099C40.6385 35.165 41.4671 36.0001 42.5352 36.0001C43.0876 36.0001 43.4835 35.8006 43.7229 35.4434V35.9212H44.5516V34.0099ZM41.5086 34.0099C41.5086 33.3326 41.9413 32.7759 42.6549 32.7759C43.327 32.7759 43.8012 33.2955 43.8012 34.0099C43.8012 34.6872 43.327 35.2439 42.6549 35.2439C41.9413 35.2022 41.5086 34.6826 41.5086 34.0099ZM13.7668 34.0099V32.0986H12.9381V32.5764C12.6619 32.2192 12.266 32.0197 11.7503 32.0197C10.6823 32.0197 9.85363 32.8547 9.85363 34.0099C9.85363 35.165 10.6823 36.0001 11.7503 36.0001C12.3028 36.0001 12.6987 35.8006 12.9381 35.4434V35.9212H13.7668V34.0099ZM10.6869 34.0099C10.6869 33.3326 11.1196 32.7759 11.8332 32.7759C12.5054 32.7759 12.9795 33.2955 12.9795 34.0099C12.9795 34.6872 12.5054 35.2439 11.8332 35.2439C11.1196 35.2022 10.6869 34.6826 10.6869 34.0099Z" fill="black"/>
<path d="M29.9718 3.06641H17.5234V25.6035H29.9718V3.06641Z" fill="#FF5A00"/>
<path d="M18.3517 14.3351C18.3517 9.75619 20.4878 5.69227 23.7656 3.06649C21.3533 1.15515 18.3103 0 14.991 0C7.12791 0 0.765625 6.41134 0.765625 14.3351C0.765625 22.2588 7.12791 28.6701 14.991 28.6701C18.3103 28.6701 21.3533 27.5149 23.7656 25.6036C20.4832 23.0149 18.3517 18.9139 18.3517 14.3351Z" fill="#EB001B"/>
<path d="M46.7656 14.3351C46.7656 22.2588 40.4033 28.6701 32.5402 28.6701C29.221 28.6701 26.178 27.5149 23.7656 25.6036C27.0849 22.9732 29.1796 18.9139 29.1796 14.3351C29.1796 9.75619 27.0434 5.69227 23.7656 3.06649C26.1734 1.15515 29.2164 0 32.5356 0C40.4033 0 46.7656 6.45309 46.7656 14.3351Z" fill="#F79E1B"/>
</g>
<defs>
<clipPath id="clip0_2136_7304">
<rect width="46" height="36" fill="white" transform="translate(0.765625)"/>
</clipPath>
</defs>
</svg>
