<svg width="73" height="36" viewBox="0 0 73 36" fill="none" xmlns="http://www.w3.org/2000/svg">
<path fill-rule="evenodd" clip-rule="evenodd" d="M7.35711 8.40171C7.99392 8.39795 9.88648 8.2296 10.6881 10.9018C11.2281 12.7018 12.0883 15.6503 13.2687 19.7472H13.7494C15.0153 15.4279 15.8848 12.4794 16.3581 10.9018C17.1681 8.20177 19.1931 8.40177 20.0031 8.40177L26.2525 8.40178V27.6017H19.883V16.2869H19.4558L15.9052 27.6017H11.1129L7.56225 16.2785H7.13513V27.6017H0.765625V8.40178L7.35711 8.40171ZM35.3989 8.40178V19.7251H35.9071L40.2262 10.414C41.0646 8.56108 42.8515 8.40178 42.8515 8.40178H49.0152V27.6018H42.5127V16.2785H42.0046L37.7702 25.5895C36.9318 27.4341 35.0602 27.6018 35.0602 27.6018H28.8964V8.40178H35.3989ZM71.4909 17.5257C70.5838 20.0643 67.7354 21.8824 64.5818 21.8824H57.7626V27.6018H51.5791V17.5257H71.4909Z" fill="#0F754E"/>
<path fill-rule="evenodd" clip-rule="evenodd" d="M64.8791 8.40186H51.2539C51.5782 12.6764 55.3053 16.3357 59.1637 16.3357H71.9196C72.6557 12.7831 70.1217 8.40186 64.8791 8.40186Z" fill="url(#paint0_linear_2136_7310)"/>
<defs>
<linearGradient id="paint0_linear_2136_7310" x1="72.0447" y1="13.3926" x2="51.2539" y2="13.3926" gradientUnits="userSpaceOnUse">
<stop stop-color="#1F5CD7"/>
<stop offset="1" stop-color="#02AEFF"/>
</linearGradient>
</defs>
</svg>
