<svg width="222" height="36" viewBox="0 0 222 36" fill="none" xmlns="http://www.w3.org/2000/svg">
<path d="M2.20508 5.31747C1.34626 5.71206 0.580285 6.52446 0.255325 7.38328C0.0928455 7.8243 0 11.9559 0 19.5228V30.9893H5.33862V23.7937H12.4413L14.2982 27.3915L16.1319 30.9893H19.219C20.8902 30.9893 22.2829 30.9196 22.2829 30.85C22.2829 30.7571 21.3313 28.8538 20.1475 26.6255L18.0352 22.5403L18.5923 22.1921C21.7259 20.1263 23.1185 16.0643 22.2829 11.4221C21.7491 8.59027 20.3796 6.59409 18.2674 5.66564C17.0836 5.13177 16.8747 5.10856 9.98089 5.06214C4.41016 5.01572 2.76215 5.06214 2.20508 5.31747ZM15.6677 10.5632C16.0391 10.7025 16.4104 11.1203 16.6194 11.6542C17.0604 12.6987 17.1068 15.368 16.7122 16.1572C15.7141 18.0837 14.4839 18.4551 9.23813 18.4551H5.33862V10.3311H10.1898C12.8591 10.3311 15.3195 10.424 15.6677 10.5632ZM30.1748 5.20141C27.8769 5.89775 26.2289 7.54576 25.5325 9.79726C24.9754 11.6078 24.372 15.8786 24.372 17.9445C24.372 19.9406 24.929 24.0026 25.4165 25.6506C26.2753 28.5056 27.7376 29.968 30.4301 30.6643C31.5907 30.966 32.8209 31.0125 36.7668 30.9428C41.293 30.8732 41.7573 30.8036 42.8946 30.3161C46.1674 28.8538 47.5833 25.14 47.5833 17.9909C47.5601 10.4704 46.0978 6.75657 42.6393 5.47995C41.4091 5.03893 40.8752 4.99251 36.0241 5.01572C33.1226 5.01572 30.4998 5.10856 30.1748 5.20141ZM40.9681 10.865C42.5233 13.0004 42.5 23.5152 40.9217 25.0704C40.4574 25.5578 31.5211 25.581 31.1265 25.1168C30.0355 23.7937 29.6409 16.1572 30.4765 12.5826C30.8247 11.1667 31.0104 10.7257 31.405 10.5632C31.6835 10.4472 33.8886 10.3775 36.2794 10.4008C40.2021 10.4472 40.6896 10.4936 40.9681 10.865ZM52.597 5.50316C52.0863 5.80491 51.4596 6.4084 51.2043 6.84942C50.7401 7.63861 50.7169 8.05641 50.6472 17.341C50.6008 23.8169 50.6704 27.3219 50.8329 27.9718C51.2275 29.4109 52.2488 30.4554 53.6415 30.7339C55.0806 31.0589 65.3168 31.0589 67.1505 30.7571C70.7251 30.1769 72.5588 28.0878 72.8141 24.258C72.9766 22.0993 72.6284 20.4977 71.7232 19.0586L71.05 18.0141L71.9089 16.3429C72.7445 14.7413 72.7677 14.5788 72.7677 12.3273C72.7677 10.4008 72.6516 9.77405 72.2338 8.82239C71.5607 7.36007 70.7483 6.50125 69.286 5.73527L68.1254 5.10856L60.8138 5.03893C53.5719 4.99251 53.5022 4.99251 52.597 5.50316ZM66.9648 10.6097C67.2898 10.9346 67.4987 12.4898 67.2898 13.2093C67.1737 13.6271 66.8024 14.2074 66.4774 14.5324C65.8971 15.0895 65.8043 15.0895 61.0227 15.1591L56.1715 15.2287V10.3079L61.4869 10.3775C64.4116 10.424 66.872 10.5168 66.9648 10.6097ZM65.9435 20.9619C66.872 21.3333 67.3826 22.3314 67.3594 23.6545C67.3362 24.4901 67.2202 24.9079 66.9416 25.1168C66.6399 25.3489 65.1776 25.4185 61.3477 25.4185H56.1715V20.4977L60.7674 20.5906C63.2742 20.6602 65.6186 20.8227 65.9435 20.9619ZM80.5899 5.47995C78.3384 6.36198 77.2011 7.94035 76.319 11.4221C75.878 13.1861 75.8084 14.1146 75.8084 17.9909C75.8084 22.2154 75.8548 22.6796 76.4351 24.8382C77.1546 27.4611 77.8278 28.5985 79.174 29.5966C80.8452 30.7804 81.3559 30.8732 87.2748 30.8732C93.1937 30.8732 93.7044 30.7804 95.3756 29.5966C96.7218 28.5985 97.395 27.4611 98.1145 24.8382C98.6948 22.6796 98.7412 22.2154 98.7412 17.9909C98.7412 14.1146 98.6716 13.1861 98.2306 11.4221C97.3485 7.89393 96.2112 6.33877 93.89 5.47995C92.7063 5.03893 92.126 4.99251 87.2052 5.01572C82.354 5.01572 81.7041 5.06214 80.5899 5.47995ZM91.7778 10.5632C92.4045 10.7954 92.6831 11.5149 93.1241 14.1378C93.6811 17.3642 93.1937 23.4456 92.2652 24.8615C91.9171 25.4185 91.8939 25.4185 87.2748 25.4185C81.8433 25.4185 82.1683 25.581 81.5648 22.4939C80.706 18.223 81.4023 11.0971 82.7022 10.5632C83.3985 10.2847 91.035 10.2847 91.7778 10.5632Z" fill="#276EB8"/>
<path d="M103.462 5.83542L102.742 6.55497V29.5342L103.415 30.2074C104.019 30.7877 104.274 30.8805 105.458 30.8805C106.595 30.8805 106.92 30.7877 107.338 30.3466C108.15 29.4878 108.313 28.4897 108.313 24.4509V20.6675H111.725L113.443 22.153C116.878 25.1009 118.062 26.6792 118.062 28.2576C118.062 29.1396 118.178 29.4182 118.851 30.0913C119.547 30.7877 119.779 30.8805 120.824 30.8805C121.799 30.8805 122.124 30.7644 122.75 30.2074C123.493 29.5575 123.516 29.4646 123.493 27.7702C123.47 26.3079 123.354 25.774 122.75 24.5438C121.938 22.919 119.57 20.0176 118.085 18.8338L117.11 18.0678L118.619 16.6983C120.429 15.0271 122.1 12.8685 122.89 11.174C123.331 10.1992 123.47 9.50282 123.493 8.20298C123.516 6.53176 123.493 6.43891 122.75 5.78899C122.077 5.1855 121.822 5.11586 120.522 5.11586C119.176 5.11586 118.967 5.1855 118.549 5.71936C118.224 6.13717 118.062 6.67103 118.062 7.36737C118.062 7.92444 117.922 8.71363 117.737 9.13144C117.342 10.1063 115.578 12.0329 113.443 13.8666L111.725 15.3289H108.313V11.5454C108.313 9.47961 108.197 7.39058 108.081 6.92635C107.733 5.67294 106.897 5.11586 105.388 5.11586C104.344 5.11586 104.065 5.20871 103.462 5.83542ZM133.01 5.44082C129.876 6.43891 128.159 8.66721 126.952 13.2166C126.395 15.2592 126.348 15.9556 126.255 21.8513C126.116 28.8147 126.209 29.5807 127.277 30.4163C128.043 31.0198 130.016 31.043 130.735 30.4627C131.571 29.7896 131.756 29.1396 131.756 26.7257V24.3813H143.826V26.9578C143.826 29.4878 143.826 29.5342 144.499 30.2074C145.103 30.7877 145.358 30.8805 146.496 30.8805C147.679 30.8805 147.888 30.8109 148.515 30.1377L149.188 29.395L149.119 21.9673C149.026 15.0968 148.979 14.3772 148.515 12.822C147.401 9.15465 145.776 6.85672 143.594 5.83542C142.387 5.27834 142.062 5.23192 138.14 5.1855C135.168 5.13907 133.683 5.20871 133.01 5.44082ZM141.018 10.7098C142.294 11.1508 143.385 13.9594 143.687 17.4643L143.803 19.0427H131.687L131.849 17.1858C132.128 13.913 133.404 10.8491 134.588 10.617C135.726 10.4081 140.321 10.4777 141.018 10.7098ZM156.477 5.44082C154.202 6.16038 152.925 7.27452 152.136 9.29391C151.741 10.3152 151.625 11.058 151.625 12.8917C151.625 16.6055 152.74 18.7177 155.362 19.9944C156.407 20.505 156.825 20.5514 161.397 20.6675C166.132 20.7836 166.341 20.8068 166.852 21.3174C167.525 21.9905 167.595 23.9635 166.968 24.9152L166.573 25.5419H160.33C154.434 25.5419 154.063 25.5651 153.505 26.0061C152.206 27.0274 152.159 29.2557 153.389 30.3002L154.086 30.8805H160.84C164.601 30.8805 167.989 30.7644 168.454 30.6484C169.73 30.3002 171.1 28.954 171.959 27.2131C172.678 25.7508 172.725 25.5419 172.725 23.1047C172.725 20.83 172.655 20.4122 172.121 19.2748C171.355 17.65 170.311 16.443 169.173 15.8859C168.43 15.5146 167.572 15.4217 163.022 15.3289C156.871 15.1896 157.057 15.2825 157.057 12.8917C157.057 10.4777 156.709 10.5938 164.113 10.4545L170.519 10.3384L171.146 9.71172C171.703 9.15465 171.773 8.87611 171.866 7.11204L171.982 5.11586L164.693 5.13907C159.494 5.13907 157.15 5.23192 156.477 5.44082ZM179.456 5.44082C178.945 5.6033 178.226 5.90505 177.831 6.09074C174.837 7.66912 173.583 12.9613 175.301 16.7216C176.021 18.2999 176.81 19.1355 178.295 19.9247C179.409 20.5282 179.595 20.5514 184.098 20.6211C186.651 20.6443 189.019 20.8068 189.367 20.9228C190.179 21.2478 190.574 22.4316 190.365 23.8242C190.11 25.5883 190.296 25.5419 183.262 25.5419H176.972L176.299 26.215C175.719 26.8185 175.626 27.0738 175.626 28.2112C175.626 29.3486 175.719 29.6039 176.299 30.2074L176.972 30.8805H183.982C191.781 30.8805 191.967 30.8573 193.592 29.3021C195.007 27.9327 195.657 26.3079 195.773 23.6386C195.913 20.5514 195.332 18.7409 193.615 17.0465C192.849 16.2805 192.083 15.7467 191.503 15.5842C190.992 15.4449 188.671 15.3289 186.28 15.3289C183.889 15.3289 181.638 15.2592 181.243 15.1896C180.407 15.0271 180.036 14.3076 180.036 12.8917C180.036 11.4758 180.407 10.7562 181.243 10.5938C181.638 10.5241 184.446 10.4545 187.51 10.4545C194.729 10.4545 194.891 10.3616 194.891 6.85672V5.11586L187.649 5.13907C182.473 5.13907 180.106 5.23192 179.456 5.44082ZM204.895 5.58009C204.222 5.81221 203.294 6.29964 202.853 6.64782C200.996 8.06371 199.325 11.7775 198.861 15.561C198.512 18.2071 198.536 28.5129 198.861 29.4646C199.185 30.3699 200.114 30.8805 201.483 30.8805C202.319 30.8805 202.69 30.7412 203.294 30.2074L204.06 29.5342L204.129 26.9578L204.222 24.3813H215.967L216.06 26.9578L216.13 29.5342L216.896 30.2074C217.499 30.7644 217.847 30.8805 218.799 30.8805C219.751 30.8805 220.099 30.7644 220.702 30.2074L221.468 29.5342L221.445 22.2459C221.422 15.5842 221.399 14.8414 220.935 13.1702C219.89 9.34034 218.335 7.0192 216.083 5.90505C214.76 5.25513 214.644 5.23192 210.443 5.1855C206.66 5.11586 206.01 5.16229 204.895 5.58009ZM214.18 11.3829C215.108 12.4739 215.805 14.795 215.944 17.1162L216.083 19.0427H204.176V17.6268C204.176 14.679 205.476 11.2437 206.776 10.6866C207.077 10.5705 208.702 10.5009 210.42 10.5241L213.507 10.5705L214.18 11.3829Z" fill="#D61E2F"/>
</svg>
