<svg width="79" height="36" viewBox="0 0 79 36" fill="none" xmlns="http://www.w3.org/2000/svg">
<path fill-rule="evenodd" clip-rule="evenodd" d="M29.4683 6.42164L19.4903 29.6269L12.7819 29.635L7.10094 10.1982L6.64062 8.73374L6.6786 8.75451L6.74099 8.78909L6.67975 8.75718L6.67903 8.75481C6.70883 8.77086 6.73814 8.78722 6.76782 8.80339C7.78989 9.34487 12.3274 11.9323 15.1329 16.124C15.56 18.2558 15.969 20.1923 16.5464 22.281L22.7535 6.42163H29.4683L29.4683 6.42164Z" fill="#006CB5"/>
<path fill-rule="evenodd" clip-rule="evenodd" d="M56.4614 22.0506C56.4147 26.8811 52.0935 30 45.4319 30C42.5925 29.9694 39.8542 29.4109 38.3672 28.759L39.2577 23.5543L40.0765 23.9291C42.1623 24.797 43.5073 25.1452 46.0452 25.1452C47.8688 25.1452 49.8183 24.4303 49.8321 22.8694C49.8402 21.8508 49.0133 21.1278 46.5464 19.989C44.1447 18.8745 40.9606 17.0128 41.0011 13.6717C41.0316 9.15126 45.4486 6 51.7106 6C54.1631 6 56.1271 6.50126 57.386 6.97768L56.5267 12.0155L55.9521 11.7447C54.7908 11.2763 53.2871 10.8219 51.2094 10.8542C48.7344 10.8542 47.5812 11.8896 47.5812 12.8592C47.5731 13.9407 48.9261 14.666 51.1384 15.7395C54.7989 17.3957 56.4937 19.4087 56.4614 22.0506H56.4614Z" fill="#006CB5"/>
<path fill-rule="evenodd" clip-rule="evenodd" d="M73.6409 6.42165H68.7475C67.2282 6.42165 66.0894 6.83514 65.4294 8.35496L56.0156 29.6576H62.6669C62.6669 29.6576 63.7565 26.7933 64.0053 26.1638C64.7283 26.1638 71.1983 26.1801 72.121 26.1801C72.3047 26.9931 72.885 29.6576 72.885 29.6576H78.7665L73.6409 6.42163V6.42165ZM65.8261 21.4131C66.965 18.5205 68.107 15.6073 69.1916 12.6923C69.8153 15.601 70.4531 18.5064 71.0862 21.4131H65.8261H65.8261Z" fill="#006CB5"/>
<path fill-rule="evenodd" clip-rule="evenodd" d="M32.0309 6.39722H38.3662L34.402 29.6494H28.0684L32.0309 6.39722Z" fill="#006CB5"/>
<path fill-rule="evenodd" clip-rule="evenodd" d="M8.2527e-06 6.19215L10.7198 6.19966C12.0416 6.24642 13.107 6.66791 13.4818 8.08385L15.1323 16.1238C12.3268 11.9321 7.78928 9.34463 6.76721 8.80315C6.73753 8.78698 6.70821 8.77062 6.67841 8.75457L6.67914 8.75694L6.74037 8.78885L6.67799 8.75427C6.50713 8.66057 6.33439 8.56833 6.16002 8.4779C4.28763 7.50628 2.21683 6.72714 0 6.19214L8.2527e-06 6.19215Z" fill="#FAA841"/>
</svg>
