<svg width="157" height="36" viewBox="0 0 157 36" fill="none" xmlns="http://www.w3.org/2000/svg">
<g clip-path="url(#clip0_2136_7320)">
<path d="M138.526 0.00732422C141.377 0.00732422 144.089 0.660477 146.523 1.82885C146.905 2.00107 147.289 2.20718 147.669 2.41348L146 3.89182L143.498 1.31381L139.187 5.09445L136.649 2.37868L128.721 9.42527L133.796 14.9593L131.815 16.6774L136.823 22.2114L134.841 23.9289L142.004 31.8003L146.243 27.9505L149.931 32.0762C149.2 32.6262 148.4 33.1773 147.532 33.6577C144.889 35.1355 141.829 35.9932 138.561 35.9932C128.512 35.9932 120.342 27.9174 120.342 17.9848C120.306 8.11931 128.477 0.00732422 138.526 0.00732422ZM135.187 16.8841L139.534 13.0342L143.429 17.3306L139.081 21.1801L135.187 16.8841ZM138.283 24.3087L142.594 20.4247L146.523 24.7207L142.176 28.5708L138.283 24.3087ZM132.095 9.56322L136.44 5.71334L140.334 10.0097L135.987 13.8594L132.095 9.56322ZM140.055 7.50024L143.289 4.61315L146.211 7.80988L142.977 10.7311L140.055 7.50024ZM145.828 20.7334L149.06 17.8462L151.982 21.0763L148.748 23.9653L145.828 20.7334ZM148.678 27.2304L151.912 24.3426L154.831 27.5391L151.599 30.46L148.678 27.2304ZM150 12.3811L152.155 10.456L154.102 12.5879L151.947 14.5122L150 12.3811ZM147.218 6.02225L149.374 4.06348L151.322 6.22854L149.165 8.15339L147.218 6.02225ZM152.746 18.7404L154.902 16.8156L156.884 18.9467L154.694 20.871L152.746 18.7404ZM143.046 13.9626L146.28 11.0753L149.2 14.2713L145.967 17.1591L143.046 13.9626Z" fill="#036CB5"/>
<mask id="mask0_2136_7320" style="mask-type:alpha" maskUnits="userSpaceOnUse" x="-1" y="7" width="20" height="18">
<path d="M-0.0917969 7.48413V24.098H18.9124V7.48413H-0.0917969Z" fill="white"/>
</mask>
<g mask="url(#mask0_2136_7320)">
<path d="M9.44545 12.4037H9.28145L6.2025 24.098H3.6859L-0.0917969 7.48413H2.51932L5.13105 19.8809H5.29415L8.32491 7.48413H10.4008L13.6421 19.8809H13.8053L16.184 7.48413H18.9124L15.1337 24.098H12.6152L9.44545 12.4037Z" fill="#036CB5"/>
</g>
<path d="M22.2258 17.0252H27.5645C27.4487 14.5655 26.2588 13.5822 25.0001 13.5822C23.5778 13.5822 22.4812 14.6833 22.2258 17.0252ZM29.4296 21.4319V23.2131C28.3806 23.8221 26.9822 24.2911 25.3024 24.2911C21.3861 24.2911 19.7773 21.8541 19.7773 18.1522C19.7773 14.5889 21.5724 12.0112 25.0701 12.0112C27.9839 12.0112 29.7805 13.9106 29.7805 17.7292V18.5963H22.179C22.179 21.4074 23.3209 22.6497 25.7235 22.6497C26.9823 22.6497 28.1481 22.2037 29.4296 21.4319Z" fill="#036CB5"/>
<path d="M35.2024 22.4122C35.9487 22.7402 36.7654 22.7887 37.3493 22.7887C39.0744 22.7887 40.3787 21.7093 40.3787 17.9142C40.3787 14.9382 39.3063 13.9774 37.7447 13.9774C36.8112 13.9774 36.1353 14.2359 35.2023 14.7505V22.4122H35.2024ZM35.2269 13.0169C35.9247 12.6432 37.1137 12.1494 38.3733 12.1494C41.2649 12.1494 42.8274 14.1646 42.8274 17.9142C42.8274 22.2964 40.7285 24.4288 37.3493 24.4288C36.1125 24.4288 34.2006 24.0303 32.8008 23.2788V6.92435L35.2269 6.33936V13.0169H35.2269Z" fill="#036CB5"/>
<path d="M53.3238 20.5729H53.4406L58.4295 7.47388H61.3224V24.089H58.8042V12.0436H58.594L53.8365 24.089H52.3456L47.5871 12.3253H47.378V24.089H45.2793V7.47388H48.1015L53.3238 20.5729Z" fill="#036CB5"/>
<path d="M71.6108 18.1514C71.6108 14.9883 70.3292 13.6532 68.7437 13.6532C67.2053 13.6532 65.8751 14.9883 65.8751 18.1514C65.8751 21.3621 67.0891 22.6497 68.7437 22.6497C70.3984 22.6497 71.6108 21.3621 71.6108 18.1514ZM63.4277 18.1514C63.4277 14.0492 65.6668 12.0112 68.7437 12.0112C71.8226 12.0112 74.0604 14.0492 74.0604 18.1514C74.0604 22.1577 71.9387 24.2911 68.7437 24.2911C65.5494 24.2911 63.4277 22.1577 63.4277 18.1514Z" fill="#036CB5"/>
<path d="M75.9043 13.7466C76.9535 13.1128 79.1695 12.0112 81.8503 12.0112C84.6482 12.0112 85.6956 13.1128 85.6956 15.5258V24.0097H83.2723V16.0654C83.2723 14.2146 82.3645 13.8866 81.1738 13.8866C80.2423 13.8866 79.0516 14.309 78.3294 14.7307V24.0097H75.9043V13.7466H75.9043Z" fill="#036CB5"/>
<path d="M90.8286 17.0252H96.1677C96.0529 14.5655 94.8624 13.5822 93.6032 13.5822C92.1806 13.5822 91.0861 14.6833 90.8286 17.0252ZM98.0326 21.4319V23.2131C96.984 23.8221 95.5849 24.2911 93.9057 24.2911C89.9907 24.2911 88.3809 21.8541 88.3809 18.1522C88.3809 14.5889 90.1752 12.0112 93.6732 12.0112C96.5889 12.0112 98.385 13.9106 98.385 17.7292V18.5963H90.7827C90.7827 21.4074 91.9254 22.6497 94.3271 22.6497C95.5848 22.6497 96.7525 22.2037 98.0326 21.4319Z" fill="#036CB5"/>
<path d="M108.069 12.0112H110.565L106.344 23.7261C105.176 26.9601 103.756 28.6475 101.075 28.6475V26.7272C102.661 26.7272 103.639 25.4613 104.2 23.7261L99.7227 12.0112H102.288L105.272 20.6343H105.412L108.069 12.0112Z" fill="#036CB5"/>
<path d="M25.0933 34.8974V33.8856C25.9579 34.3246 26.7807 34.545 27.5603 34.545C28.2096 34.545 28.7071 34.426 29.0546 34.1856C29.4022 33.9468 29.5763 33.624 29.5763 33.2158C29.5763 32.8079 29.4334 32.5018 29.1474 32.2982C28.8621 32.0949 28.3289 31.8431 27.5489 31.5449C27.2782 31.4432 27.1053 31.377 27.0272 31.3454C26.9504 31.3147 26.7998 31.2512 26.5754 31.1575C26.3517 31.064 26.205 30.9928 26.1358 30.946C26.066 30.8977 25.9487 30.8268 25.7823 30.734C25.6164 30.6389 25.5045 30.5552 25.4462 30.482C25.3889 30.4067 25.3093 30.3116 25.2088 30.1981C25.1086 30.085 25.0408 29.9725 25.0059 29.858C24.9714 29.7445 24.9382 29.6131 24.9076 29.4638C24.877 29.3142 24.8613 29.154 24.8613 28.9814C24.8613 28.3147 25.1068 27.779 25.5968 27.3706C26.0877 26.9637 26.7649 26.7598 27.6301 26.7598C28.3944 26.7598 29.1557 26.9006 29.9118 27.1831V28.2526C29.1783 27.8914 28.4447 27.7125 27.7109 27.7125C27.1936 27.7125 26.8074 27.8205 26.5526 28.0398C26.2977 28.2592 26.1701 28.5493 26.1701 28.9105C26.1701 29.2949 26.2977 29.5863 26.5526 29.7867C26.8074 29.9879 27.2634 30.2093 27.9199 30.4517C29.047 30.8673 29.8233 31.2435 30.2477 31.5812C30.6728 31.9172 30.8851 32.4204 30.8851 33.0859C30.8851 33.7844 30.5936 34.3553 30.0105 34.7982C29.4274 35.2411 28.6264 35.4628 27.6067 35.4628C26.6727 35.4628 25.8346 35.2736 25.0933 34.8974ZM36.8798 35.2847H35.7795L35.6982 34.6026C35.0336 35.1521 34.3698 35.4269 33.7057 35.4269C33.1499 35.4269 32.7192 35.2763 32.4144 34.9736C32.1088 34.6719 31.9565 34.2907 31.9565 33.8269C31.9565 33.5835 32.0008 33.3509 32.0897 33.1273C32.1787 32.9035 32.3255 32.6867 32.5299 32.4751C32.7345 32.2631 33.0433 32.093 33.4564 31.9631C33.8694 31.833 34.3659 31.7687 34.9453 31.7687H35.6637V31.4512C35.6637 30.926 35.5672 30.5684 35.374 30.3753C35.1804 30.1831 34.8563 30.0871 34.4009 30.0871C33.8449 30.0871 33.1612 30.3173 32.3506 30.7811V29.8405C33.1848 29.4564 34.003 29.2628 34.806 29.2628C35.5857 29.2628 36.1269 29.4245 36.4276 29.7466C36.7292 30.0673 36.8798 30.5541 36.8798 31.2034V35.2847ZM35.6753 32.5916H35.0609C33.7942 32.5916 33.1612 32.9722 33.1612 33.733C33.1612 34.0005 33.2458 34.1925 33.4159 34.3148C33.5862 34.4367 33.7986 34.4968 34.0536 34.4968C34.3773 34.4968 34.6904 34.4183 34.9915 34.2611C35.2927 34.1053 35.5208 33.925 35.6753 33.7211V32.5916H35.6753ZM38.7621 37.6377V30.1232C39.1021 29.8637 39.5031 29.6551 39.9669 29.4985C40.4305 29.3429 40.8854 29.2628 41.334 29.2628C42.9396 29.2628 43.7432 30.2474 43.7432 32.2161C43.7432 33.2353 43.5348 34.0155 43.1175 34.5555C42.7006 35.0971 42.1027 35.3664 41.322 35.3664C40.7813 35.3664 40.3295 35.2292 39.9669 34.9565V37.6377H38.7621ZM39.9553 30.5217V34.0865C40.1097 34.2348 40.3044 34.3453 40.5401 34.4203C40.7758 34.4947 40.9826 34.5318 41.16 34.5318C41.5844 34.5318 41.9188 34.3662 42.1622 34.033C42.4054 33.6991 42.5265 33.0936 42.5265 32.2161C42.5265 31.5026 42.4018 30.9798 42.1507 30.6523C41.8997 30.3218 41.573 30.158 41.1714 30.158C40.7164 30.158 40.311 30.2788 39.9553 30.5217ZM46.5061 29.3233V35.2847H45.3014V29.6167L46.5061 29.3233ZM45.1159 27.5935C45.1159 27.3819 45.195 27.1963 45.3531 27.0346C45.5119 26.874 45.6954 26.7933 45.9031 26.7933C46.1122 26.7933 46.2955 26.874 46.4542 27.0346C46.6125 27.1963 46.6915 27.3819 46.6915 27.5935C46.6915 27.8052 46.6125 27.992 46.4542 28.1533C46.2955 28.3125 46.1122 28.3932 45.9031 28.3932C45.6954 28.3932 45.5119 28.3125 45.3531 28.1533C45.195 27.992 45.1159 27.8052 45.1159 27.5935ZM51.018 34.6026C51.5744 34.6026 52.1877 34.3987 52.8598 33.9918V34.8855C52.2422 35.2467 51.5586 35.4269 50.8095 35.4269C49.8674 35.4269 49.1745 35.1562 48.7304 34.6149C48.2862 34.0735 48.0642 33.3174 48.0642 32.3451C48.0642 31.4195 48.2922 30.6739 48.7473 30.1112C49.2034 29.5467 49.8516 29.2628 50.6933 29.2628C51.4353 29.2628 52.0099 29.5066 52.4201 29.9932C52.8293 30.4801 53.0333 31.1925 53.0333 32.1331V32.5689H49.2574C49.2574 33.267 49.4004 33.7812 49.6857 34.1085C49.9716 34.4392 50.4157 34.6026 51.018 34.6026ZM50.6585 30.0521C50.2961 30.0521 49.9907 30.1974 49.7435 30.4863C49.4968 30.7769 49.342 31.2089 49.2803 31.7796H51.9329C51.9018 31.2002 51.7671 30.7681 51.5275 30.482C51.2885 30.1951 50.9988 30.0521 50.6585 30.0521ZM54.5681 35.2847V30.1342C55.5179 29.5535 56.5026 29.2628 57.5224 29.2628C58.2098 29.2628 58.6997 29.405 58.9932 29.6875C59.2867 29.97 59.4334 30.4165 59.4334 31.0276V35.2847H58.2289V31.2983C58.2289 30.8673 58.14 30.5768 57.9625 30.4287C57.7848 30.2788 57.5263 30.2049 57.1862 30.2049C56.7231 30.2049 56.2518 30.3466 55.7733 30.6285V35.2847H54.5681V35.2847ZM62.4626 29.5467H64.2929L64.0032 30.3466H62.4626V33.4505C62.4626 34.2348 62.7948 34.6267 63.4588 34.6267C63.7136 34.6267 63.9722 34.5723 64.2357 34.4622V35.2142C63.8724 35.3557 63.4397 35.4269 62.9378 35.4269C62.3585 35.4269 61.9338 35.2599 61.6633 34.9256C61.3932 34.5939 61.2579 34.1563 61.2579 33.614V28.7697L62.4626 27.8867V29.5467H62.4626ZM66.651 29.3233V35.2847H65.4459V29.6167L66.651 29.3233ZM65.2608 27.5935C65.2608 27.3819 65.3401 27.1963 65.4975 27.0346C65.6557 26.874 65.8391 26.7933 66.0482 26.7933C66.2564 26.7933 66.4403 26.874 66.5981 27.0346C66.7568 27.1963 66.8359 27.3819 66.8359 27.5935C66.8359 27.8052 66.7568 27.992 66.5981 28.1533C66.4403 28.3125 66.2565 28.3932 66.0482 28.3932C65.8391 28.3932 65.6557 28.3125 65.4975 28.1533C65.34 27.992 65.2608 27.8052 65.2608 27.5935ZM74.852 29.7343V30.6739C74.2727 30.2823 73.6856 30.0871 73.0915 30.0871C72.7903 30.0871 72.5432 30.1458 72.3496 30.2638C72.1569 30.3805 72.0602 30.5695 72.0602 30.8268C72.0602 31.0713 72.1661 31.2648 72.3785 31.4097C72.5911 31.5551 72.9251 31.7022 73.3812 31.8501C73.636 31.9365 73.8268 32.0036 73.9539 32.0504C74.0818 32.0985 74.2493 32.1771 74.4582 32.2861C74.6665 32.3964 74.8232 32.5051 74.9273 32.6157C75.0316 32.7258 75.1261 32.87 75.2113 33.051C75.2962 33.2312 75.3382 33.4305 75.3382 33.6502C75.3382 34.1917 75.1239 34.6226 74.696 34.9442C74.2672 35.2656 73.6934 35.427 72.9757 35.427C72.1722 35.427 71.5038 35.2544 70.9713 34.9084V33.9918C71.6507 34.3987 72.2725 34.6027 72.8368 34.6027C73.6856 34.6027 74.1106 34.3212 74.1106 33.7561C74.1106 33.6468 74.0854 33.544 74.0353 33.4505C73.9851 33.3565 73.9272 33.2801 73.8618 33.221C73.7958 33.1623 73.6894 33.0959 73.5427 33.0203C73.3958 32.9473 73.2727 32.8927 73.1721 32.8568C73.0719 32.8218 72.9136 32.7649 72.6976 32.6867C72.3806 32.569 72.1297 32.4674 71.9441 32.3807C71.7585 32.2938 71.5738 32.1824 71.3883 32.0457C71.2027 31.9085 71.0673 31.7447 70.983 31.5571C70.8982 31.3695 70.8556 31.1454 70.8556 30.887C70.8556 30.5576 70.9326 30.2761 71.0871 30.0414C71.2414 29.8046 71.4427 29.6362 71.6893 29.5346C71.9364 29.4324 72.1624 29.3614 72.367 29.3233C72.5719 29.2828 72.7745 29.2628 72.9757 29.2628C73.6323 29.2628 74.2575 29.42 74.852 29.7343ZM81.2519 35.2847H80.1517L80.0702 34.6026C79.4056 35.1521 78.7421 35.4269 78.0782 35.4269C77.5222 35.4269 77.0916 35.2763 76.7865 34.9736C76.4811 34.6719 76.329 34.2907 76.329 33.8269C76.329 33.5835 76.3732 33.3509 76.4623 33.1273C76.551 32.9035 76.6977 32.6867 76.9024 32.4751C77.1076 32.2631 77.4157 32.093 77.8288 31.9631C78.2422 31.833 78.7387 31.7687 79.3171 31.7687H80.0361V31.4512C80.0361 30.926 79.939 30.5684 79.747 30.3753C79.5526 30.1831 79.2285 30.0871 78.7737 30.0871C78.2172 30.0871 77.5336 30.3173 76.7229 30.7811V29.8405C77.5572 29.4564 78.3753 29.2628 79.1784 29.2628C79.9588 29.2628 80.4986 29.4245 80.8 29.7466C81.1011 30.0673 81.2519 30.5541 81.2519 31.2034V35.2847H81.2519ZM80.0482 32.5916H79.4336C78.1669 32.5916 77.5336 32.9722 77.5336 33.733C77.5336 34.0005 77.6186 34.1925 77.7883 34.3148C77.9585 34.4367 78.1703 34.4968 78.4257 34.4968C78.7497 34.4968 79.0617 34.4183 79.364 34.2611C79.6651 34.1053 79.8933 33.925 80.0482 33.7211V32.5916H80.0482ZM84.2818 29.5467H86.1119L85.8215 30.3466H84.2818V33.4505C84.2818 34.2348 84.6135 34.6267 85.2768 34.6267C85.532 34.6267 85.7899 34.5723 86.0537 34.4622V35.2142C85.6905 35.3557 85.2586 35.4269 84.7552 35.4269C84.177 35.4269 83.7525 35.2599 83.4821 34.9256C83.2115 34.5939 83.0759 34.1563 83.0759 33.614V28.7697L84.2817 27.8867V29.5467H84.2818Z" fill="#B6B6B6"/>
</g>
<defs>
<clipPath id="clip0_2136_7320">
<rect width="156.792" height="36" fill="white"/>
</clipPath>
</defs>
</svg>
